<svg width="1237" height="880" viewBox="0 0 1237 880" fill="none" xmlns="http://www.w3.org/2000/svg">
<g clip-path="url(#clip0)">
<path d="M596.985 683.185L595.867 681.526C597.52 680.413 599.16 679.283 600.789 678.137L601.94 679.773C600.301 680.927 598.649 682.064 596.985 683.185Z" fill="#CCCCCC"/>
<path d="M435.632 732.991L435.618 730.991C439.662 730.962 443.75 730.849 447.768 730.655L447.864 732.653C443.819 732.848 439.703 732.962 435.632 732.991ZM423.397 732.828C419.337 732.69 415.226 732.466 411.18 732.161L411.33 730.167C415.349 730.47 419.432 730.693 423.465 730.829L423.397 732.828ZM460.068 731.811L459.889 729.818C463.903 729.458 467.966 729.008 471.965 728.479L472.227 730.462C468.2 730.994 464.109 731.448 460.068 731.811V731.811ZM398.999 730.989C394.957 730.515 390.879 729.95 386.879 729.31L387.194 727.335C391.168 727.971 395.218 728.532 399.232 729.003L398.999 730.989ZM484.319 728.607L483.975 726.637C487.943 725.943 491.955 725.155 495.897 724.293L496.324 726.248C492.354 727.115 488.315 727.909 484.319 728.607V728.607ZM374.839 727.125C370.859 726.317 366.843 725.413 362.901 724.438L363.381 722.496C367.296 723.464 371.285 724.362 375.237 725.166L374.839 727.125ZM508.22 723.386L507.711 721.451C511.611 720.426 515.542 719.303 519.395 718.115L519.985 720.026C516.105 721.223 512.147 722.353 508.22 723.386V723.386ZM351.059 721.241C347.157 720.099 343.223 718.857 339.365 717.55L340.007 715.655C343.838 716.954 347.746 718.188 351.62 719.321L351.059 721.241ZM531.598 716.173L530.929 714.289C534.729 712.939 538.552 711.49 542.292 709.981L543.04 711.836C539.274 713.355 535.425 714.814 531.598 716.173V716.173ZM327.84 713.369C324.043 711.9 320.229 710.332 316.505 708.708L317.304 706.875C321.003 708.488 324.791 710.045 328.562 711.504L327.84 713.369ZM554.29 707.021L553.464 705.2C557.142 703.533 560.83 701.768 564.426 699.953L565.328 701.738C561.707 703.566 557.993 705.343 554.29 707.021V707.021ZM305.377 703.576C301.722 701.796 298.055 699.914 294.478 697.982L295.428 696.222C298.981 698.141 302.623 700.01 306.253 701.778L305.377 703.576ZM576.135 695.998L575.16 694.252C578.683 692.284 582.211 690.216 585.645 688.106L586.692 689.81C583.234 691.935 579.682 694.017 576.135 695.998ZM283.824 691.937C280.335 689.859 276.839 687.678 273.433 685.452L274.528 683.778C277.91 685.988 281.382 688.155 284.847 690.218L283.824 691.937ZM263.325 678.542C260.022 676.182 256.722 673.717 253.514 671.217L254.744 669.64C257.929 672.123 261.208 674.571 264.488 676.915L263.325 678.542ZM244.018 663.492C240.918 660.861 237.834 658.132 234.852 655.38L236.208 653.91C239.17 656.644 242.233 659.355 245.312 661.967L244.018 663.492ZM226.033 646.896C223.164 644.02 220.318 641.045 217.574 638.054L219.047 636.702C221.773 639.672 224.6 642.627 227.449 645.484L226.033 646.896ZM209.49 628.871C206.874 625.771 204.286 622.572 201.796 619.361L203.376 618.135C205.849 621.325 208.421 624.502 211.018 627.581L209.49 628.871ZM194.505 609.54C192.153 606.231 189.84 602.829 187.63 599.426L189.307 598.336C191.502 601.715 193.8 605.095 196.135 608.381L194.505 609.54ZM181.183 589.037C179.116 585.544 177.095 581.962 175.177 578.39L176.94 577.443C178.844 580.992 180.851 584.549 182.905 588.018L181.183 589.037ZM169.623 567.502C167.856 563.853 166.143 560.115 164.53 556.395L166.366 555.6C167.967 559.294 169.668 563.006 171.423 566.631L169.623 567.502ZM159.91 545.087C158.453 541.298 157.059 537.429 155.765 533.586L157.66 532.948C158.945 536.764 160.33 540.606 161.776 544.369L159.91 545.087Z" fill="#CCCCCC"/>
<path d="M152.073 521.803C151.514 519.878 150.975 517.945 150.455 516.004L152.386 515.486C152.903 517.414 153.438 519.334 153.993 521.246L152.073 521.803Z" fill="#CCCCCC"/>
<path d="M722.693 407.388C722.472 405.403 722.231 403.425 721.97 401.453L723.952 401.19C724.215 403.176 724.458 405.168 724.681 407.166L722.693 407.388Z" fill="#CCCCCC"/>
<path d="M696.816 568.656L695.02 567.776C696.738 564.267 698.407 560.672 699.983 557.093L701.813 557.898C700.227 561.503 698.546 565.122 696.816 568.656ZM706.368 546.945L704.507 546.215C705.934 542.577 707.306 538.858 708.584 535.163L710.474 535.816C709.187 539.538 707.806 543.282 706.368 546.945ZM714.122 524.53L712.207 523.954C713.334 520.205 714.398 516.386 715.37 512.604L717.307 513.102C716.329 516.91 715.257 520.754 714.122 524.53V524.53ZM720.023 501.555L718.067 501.137C718.884 497.314 719.634 493.421 720.295 489.567L722.267 489.905C721.601 493.786 720.846 497.706 720.023 501.555V501.555ZM724.035 478.174L722.052 477.916C722.556 474.045 722.988 470.104 723.336 466.203L725.328 466.38C724.978 470.309 724.543 474.276 724.035 478.174V478.174ZM726.145 454.543L724.148 454.446C724.338 450.547 724.453 446.584 724.488 442.667L726.488 442.684C726.452 446.628 726.337 450.619 726.145 454.543V454.543ZM724.36 430.882C724.24 426.972 724.039 423.014 723.762 419.118L725.757 418.977C726.035 422.899 726.238 426.884 726.359 430.82L724.36 430.882Z" fill="#CCCCCC"/>
<path d="M688.486 584.432L686.747 583.445C687.729 581.713 688.695 579.971 689.643 578.218L691.402 579.169C690.448 580.935 689.476 582.689 688.486 584.432Z" fill="#CCCCCC"/>
<path d="M170.673 314.929L168.867 314.068C169.731 312.255 170.614 310.453 171.514 308.661L173.301 309.558C172.407 311.338 171.531 313.129 170.673 314.929Z" fill="#CCCCCC"/>
<path d="M178.886 298.989L177.137 298.018C179.076 294.524 181.114 291.025 183.193 287.617L184.9 288.659C182.835 292.043 180.812 295.519 178.886 298.989ZM682.95 290.063C680.907 286.671 678.763 283.271 676.577 279.958L678.247 278.856C680.448 282.192 682.607 285.616 684.663 289.03L682.95 290.063ZM191.335 278.582L189.672 277.471C191.891 274.149 194.209 270.827 196.562 267.599L198.178 268.777C195.842 271.983 193.539 275.282 191.335 278.582V278.582ZM669.795 270.122C667.477 266.903 665.061 263.69 662.615 260.571L664.189 259.336C666.652 262.477 669.084 265.712 671.418 268.953L669.795 270.122ZM205.417 259.262L203.85 258.018C206.334 254.888 208.916 251.768 211.523 248.745L213.037 250.051C210.448 253.054 207.884 256.152 205.417 259.262V259.262ZM655.05 251.32C652.475 248.299 649.805 245.293 647.113 242.385L648.581 241.027C651.291 243.955 653.98 246.981 656.572 250.022L655.05 251.32ZM221.027 241.16L219.567 239.793C222.295 236.879 225.122 233.98 227.97 231.177L229.373 232.602C226.545 235.386 223.737 238.266 221.027 241.16ZM638.817 233.781C636.008 230.983 633.1 228.205 630.177 225.522L631.529 224.048C634.472 226.75 637.399 229.547 640.229 232.364L638.817 233.781ZM238.06 224.394L236.717 222.912C239.673 220.231 242.727 217.572 245.793 215.012L247.075 216.547C244.03 219.09 240.997 221.73 238.06 224.394ZM621.205 217.622C618.174 215.061 615.049 212.528 611.917 210.094L613.144 208.515C616.298 210.966 619.444 213.516 622.496 216.095L621.205 217.622ZM256.401 209.075L255.183 207.489C258.348 205.059 261.608 202.659 264.873 200.358L266.025 201.992C262.782 204.278 259.545 206.662 256.401 209.075V209.075ZM602.328 202.952C599.097 200.647 595.775 198.378 592.455 196.208L593.548 194.533C596.892 196.718 600.237 199.003 603.49 201.324L602.328 202.952ZM275.929 195.31L274.845 193.629C278.198 191.465 281.643 189.341 285.084 187.316L286.098 189.04C282.681 191.051 279.26 193.161 275.929 195.31ZM582.311 189.874C578.904 187.843 575.407 185.854 571.915 183.962L572.867 182.203C576.383 184.108 579.905 186.111 583.335 188.156L582.311 189.874ZM296.515 183.192L295.572 181.428C299.095 179.545 302.702 177.712 306.293 175.979L307.162 177.779C303.596 179.501 300.014 181.322 296.515 183.192V183.192ZM561.283 178.482C557.709 176.733 554.058 175.039 550.432 173.446L551.236 171.615C554.888 173.218 558.563 174.924 562.162 176.686L561.283 178.482ZM318.022 172.812L317.227 170.976C320.888 169.392 324.632 167.862 328.358 166.429L329.076 168.296C325.376 169.719 321.657 171.238 318.022 172.812V172.812ZM539.382 168.861C535.685 167.417 531.906 166.029 528.149 164.738L528.799 162.846C532.582 164.147 536.388 165.544 540.11 166.999L539.382 168.861ZM340.305 164.242L339.665 162.348C343.448 161.069 347.306 159.855 351.129 158.737L351.69 160.657C347.893 161.767 344.062 162.973 340.305 164.242ZM516.753 161.083C512.945 159.948 509.063 158.877 505.214 157.902L505.705 155.963C509.581 156.946 513.49 158.023 517.324 159.166L516.753 161.083ZM363.212 157.544L362.73 155.603C366.604 154.643 370.547 153.751 374.449 152.953L374.849 154.912C370.975 155.705 367.059 156.59 363.212 157.544V157.544ZM493.55 155.202C489.679 154.39 485.728 153.646 481.805 152.99L482.135 151.017C486.084 151.677 490.063 152.427 493.961 153.245L493.55 155.202ZM386.606 152.758L386.286 150.783C390.227 150.145 394.236 149.58 398.202 149.104L398.44 151.089C394.502 151.562 390.52 152.124 386.606 152.758V152.758ZM469.979 151.263C466.052 150.772 462.053 150.355 458.092 150.023L458.259 148.03C462.247 148.364 466.274 148.784 470.227 149.279L469.979 151.263ZM410.333 149.908L410.176 147.914C414.155 147.601 418.197 147.365 422.189 147.213L422.264 149.212C418.299 149.363 414.285 149.597 410.333 149.908V149.908ZM446.165 149.27C442.204 149.101 438.184 149.01 434.216 149L434.221 147C438.216 147.01 442.263 147.101 446.25 147.271L446.165 149.27Z" fill="#CCCCCC"/>
<path d="M691.768 305.784C690.847 304.015 689.908 302.257 688.952 300.509L690.707 299.549C691.669 301.309 692.615 303.079 693.542 304.86L691.768 305.784Z" fill="#CCCCCC"/>
<path d="M369.5 342.999H351V499.499C350.995 503.476 349.413 507.288 346.601 510.1C343.789 512.912 339.977 514.494 336 514.499H33.5V527.999C33.5064 532.506 35.2995 536.826 38.4862 540.013C41.673 543.2 45.9933 544.993 50.5 544.999H369.5C374.007 544.993 378.327 543.2 381.514 540.013C384.701 536.826 386.494 532.506 386.5 527.999V359.999C386.494 355.492 384.701 351.172 381.514 347.985C378.327 344.799 374.007 343.005 369.5 342.999Z" fill="#F2F2F2"/>
<path d="M336 314.499H17C12.4933 314.505 8.17296 316.299 4.98622 319.485C1.79948 322.672 0.00637539 326.992 0 331.499V499.499C0.00637803 504.006 1.7995 508.326 4.98624 511.513C8.17297 514.7 12.4933 516.493 17 516.499H336C340.507 516.493 344.827 514.7 348.014 511.513C351.201 508.326 352.994 504.006 353 499.499V331.499C352.994 326.992 351.201 322.672 348.014 319.485C344.827 316.299 340.507 314.505 336 314.499ZM351 499.499C350.995 503.476 349.413 507.288 346.601 510.1C343.789 512.912 339.977 514.494 336 514.499H17C13.0232 514.494 9.21074 512.912 6.39874 510.1C3.58675 507.288 2.00484 503.476 2 499.499V331.499C2.00484 327.522 3.58675 323.71 6.39874 320.898C9.21074 318.086 13.0232 316.504 17 316.499H336C339.977 316.504 343.789 318.086 346.601 320.898C349.413 323.71 350.995 327.522 351 331.499V499.499Z" fill="#3F3D56"/>
<path d="M311.941 438.499H199.941C197.819 438.499 195.784 437.656 194.284 436.156C192.784 434.656 191.941 432.621 191.941 430.499C191.941 428.377 192.784 426.342 194.284 424.842C195.784 423.342 197.819 422.499 199.941 422.499H311.941C314.063 422.499 316.097 423.342 317.598 424.842C319.098 426.342 319.941 428.377 319.941 430.499C319.941 432.621 319.098 434.656 317.598 436.156C316.097 437.656 314.063 438.499 311.941 438.499Z" fill="#CCCCCC"/>
<path d="M241.941 404.499H199.941C197.819 404.499 195.784 403.656 194.284 402.156C192.784 400.656 191.941 398.621 191.941 396.499C191.941 394.377 192.784 392.342 194.284 390.842C195.784 389.342 197.819 388.499 199.941 388.499H241.941C244.063 388.499 246.097 389.342 247.598 390.842C249.098 392.342 249.941 394.377 249.941 396.499C249.941 398.621 249.098 400.656 247.598 402.156C246.097 403.656 244.063 404.499 241.941 404.499Z" fill="#CCCCCC"/>
<path d="M149.5 478.499H47.5C45.2464 478.496 43.0859 477.6 41.4924 476.007C39.8989 474.413 39.0025 472.253 39 469.999V356.999C39.0025 354.745 39.8989 352.585 41.4924 350.991C43.0859 349.398 45.2464 348.502 47.5 348.499H149.5C151.754 348.502 153.914 349.398 155.508 350.991C157.101 352.585 157.997 354.745 158 356.999V469.999C157.997 472.253 157.101 474.413 155.508 476.007C153.914 477.6 151.754 478.496 149.5 478.499V478.499Z" fill="#3B7D5E"/>
<path d="M100.044 454.962C97.7945 454.899 94.9954 454.821 92.8403 453.246C92.1982 452.758 91.6707 452.135 91.2947 451.422C90.9186 450.708 90.7032 449.921 90.6634 449.115C90.6244 448.543 90.7184 447.969 90.9379 447.439C91.1574 446.909 91.4966 446.437 91.9288 446.059C92.5713 445.58 93.3235 445.269 94.117 445.154C94.9105 445.04 95.72 445.126 96.4716 445.405L94.6355 431.987L95.9833 431.802L98.142 447.577L97.0165 447.061C95.7115 446.462 93.9202 446.158 92.807 447.098C92.5337 447.344 92.3208 447.65 92.1849 447.991C92.0489 448.333 91.9935 448.701 92.023 449.067C92.056 449.667 92.2177 450.252 92.4972 450.784C92.7767 451.315 93.1674 451.78 93.6427 452.147C95.3199 453.373 97.5511 453.531 100.082 453.602L100.044 454.962Z" fill="#3F3D56"/>
<path d="M87.9699 433.144H80.6426V434.505H87.9699V433.144Z" fill="#3F3D56"/>
<path d="M111.098 433.144H103.771V434.505H111.098V433.144Z" fill="#3F3D56"/>
<path d="M67.9126 414.358C62.0121 413.685 57.4423 408.031 56.9404 402.295C56.3433 395.471 60.3174 388.99 65.7697 385.16C71.4716 381.155 78.5755 379.483 85.4489 379.115C98.8573 378.448 112.035 382.791 122.418 391.3C127.569 395.578 132.379 401.027 134.202 407.609C135.785 413.324 134.497 419.8 129.899 423.803C128.762 424.784 127.434 425.519 125.999 425.961C124.563 426.403 123.052 426.542 121.56 426.371C117.993 426 114.702 424.125 111.853 422.053C106.311 418.024 101.761 412.411 95.0097 410.305C90.0592 408.761 83.6349 410.12 80.6096 414.597C79.9232 415.622 79.4783 416.789 79.3086 418.011C79.2461 418.272 79.2849 418.546 79.4173 418.779C79.5496 419.012 79.7655 419.186 80.0213 419.266C80.2822 419.336 80.5602 419.301 80.7952 419.168C81.0302 419.034 81.2031 418.814 81.2764 418.554C82.0706 412.915 89.004 410.811 93.8693 412.098C100.963 413.976 105.725 420.306 111.545 424.328C114.558 426.574 118.107 427.991 121.839 428.437C125.074 428.69 128.285 427.704 130.82 425.678C135.792 421.751 137.694 414.998 136.594 408.918C135.321 401.878 130.582 395.843 125.383 391.172C114.842 381.801 101.157 376.745 87.0559 377.013C79.8634 377.178 72.3587 378.663 66.1624 382.465C60.152 386.152 55.5065 392.321 54.8994 399.492C54.3649 405.804 57.7513 412.406 63.5644 415.171C64.935 415.82 66.4048 416.235 67.9126 416.398C69.2152 416.547 69.2046 414.505 67.9126 414.358V414.358Z" fill="#3F3D56"/>
<path d="M878.5 607.999H862.44V660.319C862.434 664.826 860.64 669.146 857.454 672.333C854.267 675.52 849.947 677.313 845.44 677.319H444.5V684.999C444.505 690.037 446.508 694.867 450.07 698.429C453.632 701.991 458.462 703.994 463.5 703.999H878.5C883.538 703.994 888.368 701.991 891.93 698.429C895.492 694.867 897.495 690.037 897.5 684.999V626.999C897.495 621.961 895.492 617.131 891.93 613.569C888.368 610.007 883.538 608.004 878.5 607.999Z" fill="#F2F2F2"/>
<path d="M845.44 583.319H430.44C425.402 583.323 420.572 585.327 417.01 588.889C413.448 592.451 411.445 597.281 411.44 602.319V660.319C411.445 665.357 413.448 670.187 417.01 673.749C420.572 677.311 425.402 679.314 430.44 679.319H845.44C850.478 679.314 855.308 677.311 858.87 673.749C862.432 670.187 864.435 665.357 864.44 660.319V602.319C864.435 597.281 862.432 592.451 858.87 588.889C855.308 585.327 850.478 583.323 845.44 583.319ZM862.44 660.319C862.434 664.826 860.64 669.146 857.454 672.333C854.267 675.519 849.947 677.312 845.44 677.319H430.44C425.933 677.312 421.613 675.519 418.426 672.333C415.239 669.146 413.446 664.826 413.44 660.319V602.319C413.446 597.812 415.239 593.492 418.426 590.305C421.613 587.118 425.933 585.325 430.44 585.319H845.44C849.947 585.325 854.267 587.118 857.454 590.305C860.64 593.492 862.434 597.812 862.44 602.319V660.319Z" fill="#3F3D56"/>
<path d="M503.272 599.322C496.943 599.322 490.756 601.199 485.493 604.715C480.231 608.231 476.129 613.229 473.707 619.076C471.285 624.923 470.652 631.357 471.886 637.565C473.121 643.772 476.169 649.474 480.644 653.949C485.119 658.424 490.821 661.472 497.029 662.707C503.236 663.942 509.67 663.308 515.517 660.886C521.365 658.464 526.362 654.362 529.878 649.1C533.395 643.838 535.271 637.651 535.271 631.322C535.262 622.838 531.887 614.704 525.888 608.705C519.889 602.706 511.755 599.331 503.272 599.322Z" fill="#3B7D5E"/>
<path d="M796.61 658.322H567.61C565.489 658.322 563.454 657.479 561.953 655.979C560.453 654.478 559.61 652.444 559.61 650.322C559.61 648.2 560.453 646.165 561.953 644.665C563.454 643.165 565.489 642.322 567.61 642.322H796.61C798.732 642.322 800.767 643.165 802.267 644.665C803.768 646.165 804.61 648.2 804.61 650.322C804.61 652.444 803.768 654.478 802.267 655.979C800.767 657.479 798.732 658.322 796.61 658.322Z" fill="#CCCCCC"/>
<path d="M681.61 624.322H567.61C565.489 624.322 563.454 623.479 561.953 621.979C560.453 620.478 559.61 618.444 559.61 616.322C559.61 614.2 560.453 612.165 561.953 610.665C563.454 609.165 565.489 608.322 567.61 608.322H681.61C683.732 608.322 685.767 609.165 687.267 610.665C688.768 612.165 689.61 614.2 689.61 616.322C689.61 618.444 688.768 620.478 687.267 621.979C685.767 623.479 683.732 624.322 681.61 624.322Z" fill="#CCCCCC"/>
<path d="M501.101 645.314C500.274 645.315 499.47 645.048 498.808 644.552L498.767 644.521L490.129 637.913C489.321 637.294 488.792 636.379 488.659 635.37C488.526 634.36 488.799 633.34 489.418 632.532C490.038 631.724 490.953 631.195 491.962 631.062C492.971 630.928 493.992 631.201 494.8 631.821L500.395 636.111L513.616 618.863C513.923 618.463 514.305 618.127 514.741 617.875C515.177 617.623 515.659 617.459 516.159 617.393C516.658 617.327 517.166 617.36 517.653 617.491C518.139 617.621 518.596 617.846 518.996 618.152L518.997 618.153L518.915 618.267L518.999 618.153C519.806 618.773 520.334 619.688 520.467 620.697C520.6 621.705 520.327 622.726 519.709 623.534L504.158 643.813C503.798 644.28 503.336 644.658 502.806 644.918C502.277 645.177 501.694 645.311 501.105 645.31L501.101 645.314Z" fill="white"/>
<path d="M819.5 322.999H817.38C817.42 323.429 817.44 323.869 817.44 324.319V382.319C817.434 386.826 815.64 391.146 812.454 394.333C809.267 397.52 804.947 399.313 800.44 399.319H601.5V399.999C601.5 400.439 601.52 400.879 601.55 401.319C601.885 406.117 604.027 410.609 607.544 413.89C611.06 417.172 615.69 418.997 620.5 418.999H819.5C824.538 418.994 829.368 416.991 832.93 413.429C836.492 409.867 838.495 405.037 838.5 399.999V341.999C838.495 336.961 836.492 332.131 832.93 328.569C829.368 325.007 824.538 323.004 819.5 322.999Z" fill="#F2F2F2"/>
<path d="M819.39 322.999C819.055 318.201 816.913 313.708 813.396 310.427C809.88 307.146 805.25 305.321 800.44 305.319H601.44C596.402 305.323 591.572 307.327 588.01 310.889C584.448 314.451 582.445 319.281 582.44 324.319V382.319C582.445 387.357 584.448 392.187 588.01 395.749C591.572 399.311 596.402 401.314 601.44 401.319H800.44C805.478 401.314 810.308 399.311 813.87 395.749C817.432 392.187 819.435 387.357 819.44 382.319V324.319C819.44 323.879 819.42 323.439 819.39 322.999ZM817.44 382.319C817.434 386.826 815.64 391.146 812.454 394.333C809.267 397.519 804.947 399.312 800.44 399.319H601.44C596.933 399.312 592.613 397.519 589.426 394.333C586.239 391.146 584.446 386.826 584.44 382.319V324.319C584.446 319.812 586.239 315.492 589.426 312.305C592.613 309.118 596.933 307.325 601.44 307.319H800.44C804.718 307.325 808.836 308.942 811.975 311.847C815.114 314.753 817.044 318.734 817.38 322.999C817.42 323.429 817.44 323.869 817.44 324.319V382.319Z" fill="#3F3D56"/>
<path d="M749.941 378.322H651.941C649.819 378.322 647.784 377.479 646.284 375.979C644.784 374.478 643.941 372.444 643.941 370.322C643.941 368.2 644.784 366.165 646.284 364.665C647.784 363.165 649.819 362.322 651.941 362.322H749.941C752.063 362.322 754.097 363.165 755.598 364.665C757.098 366.165 757.941 368.2 757.941 370.322C757.941 372.444 757.098 374.478 755.598 375.979C754.097 377.479 752.063 378.322 749.941 378.322Z" fill="#CCCCCC"/>
<path d="M719.941 344.322H651.941C649.819 344.322 647.784 343.479 646.284 341.979C644.784 340.478 643.941 338.444 643.941 336.322C643.941 334.2 644.784 332.165 646.284 330.665C647.784 329.165 649.819 328.322 651.941 328.322H719.941C722.063 328.322 724.097 329.165 725.598 330.665C727.098 332.165 727.941 334.2 727.941 336.322C727.941 338.444 727.098 340.478 725.598 341.979C724.097 343.479 722.063 344.322 719.941 344.322Z" fill="#CCCCCC"/>
</g>
<defs>
<clipPath id="clip0">
<rect width="897.5" height="585.991" fill="white" transform="translate(0 147)"/>
</clipPath>
</defs>
</svg>
