<svg width="888" height="581" viewBox="0 0 888 581" fill="none" xmlns="http://www.w3.org/2000/svg">
<path d="M570.838 154.287V211.387C570.837 211.915 570.627 212.42 570.254 212.793C569.881 213.166 569.375 213.376 568.848 213.378H567.431V510.833C567.43 519.064 564.16 526.958 558.34 532.778C552.519 538.599 544.625 541.869 536.394 541.869H350.532C346.456 541.869 342.421 541.066 338.656 539.506C334.891 537.946 331.471 535.659 328.589 532.777C325.708 529.895 323.423 526.474 321.864 522.709C320.305 518.943 319.503 514.908 319.504 510.833V223.81H318.478C318.106 223.811 317.748 223.664 317.484 223.401C317.22 223.139 317.071 222.783 317.07 222.411V189.914C317.069 189.729 317.106 189.545 317.177 189.375C317.247 189.204 317.351 189.048 317.482 188.918C317.613 188.787 317.768 188.683 317.939 188.612C318.11 188.542 318.293 188.505 318.478 188.505H319.504V176.265H318.469C318.078 176.263 317.704 176.107 317.429 175.829C317.153 175.552 316.999 175.177 317 174.787V142.733C317.001 142.344 317.156 141.97 317.431 141.695C317.707 141.42 318.08 141.265 318.469 141.264H319.504V124.554H318.452C318.28 124.555 318.111 124.521 317.952 124.456C317.794 124.39 317.65 124.294 317.529 124.173C317.408 124.052 317.312 123.908 317.247 123.75C317.181 123.591 317.147 123.422 317.148 123.25V105.759C317.147 105.412 317.284 105.079 317.528 104.833C317.773 104.586 318.105 104.447 318.452 104.446H319.504V69.0278C319.504 60.7988 322.773 52.9069 328.592 47.0882C334.411 41.2694 342.303 38.0003 350.532 38H536.394C544.624 38 552.517 41.2687 558.337 47.0873C564.157 52.9059 567.428 60.7979 567.431 69.0278V152.296H568.848C569.375 152.297 569.881 152.508 570.254 152.881C570.627 153.254 570.837 153.759 570.838 154.287Z" fill="#333333"/>
<path d="M452.417 53.915H422.216C420.995 53.915 420.006 54.9044 420.006 56.1249V58.7353C420.006 59.9557 420.995 60.9451 422.216 60.9451H452.417C453.638 60.9451 454.627 59.9557 454.627 58.7353V56.1249C454.627 54.9044 453.638 53.915 452.417 53.915Z" fill="#E6E8EC"/>
<path d="M463.85 61.4179C466.052 61.4179 467.837 59.6326 467.837 57.4304C467.837 55.2281 466.052 53.4429 463.85 53.4429C461.647 53.4429 459.862 55.2281 459.862 57.4304C459.862 59.6326 461.647 61.4179 463.85 61.4179Z" fill="#E6E8EC"/>
<path d="M557 67.9545V512.054C556.997 517.345 554.829 522.418 550.972 526.158C547.114 529.899 541.884 532 536.43 532H350.57C347.868 532.005 345.192 531.492 342.695 530.491C340.198 529.49 337.929 528.022 336.018 526.169C334.107 524.316 332.591 522.115 331.559 519.693C330.526 517.271 329.997 514.675 330 512.054V67.9545C330 65.334 330.532 62.7391 331.566 60.3181C332.599 57.8971 334.114 55.6973 336.025 53.8443C337.935 51.9913 340.203 50.5215 342.698 49.5187C345.194 48.516 347.869 47.9999 350.57 48H378.388V51.4623C378.388 55.8199 380.172 59.9991 383.349 63.0804C386.525 66.1617 390.833 67.8928 395.326 67.8928H489.849C494.341 67.8928 498.649 66.1617 501.826 63.0804C505.002 59.9991 506.787 55.8199 506.787 51.4623V48H536.43C539.131 47.9992 541.807 48.5147 544.303 49.5172C546.799 50.5197 549.067 51.9895 550.977 53.8426C552.887 55.6958 554.403 57.8959 555.436 60.3172C556.469 62.7386 557.001 65.3338 557 67.9545V67.9545Z" fill="white"/>
<path d="M534.696 343.982H353.867V367.455H534.696V343.982Z" fill="#E6E6E6"/>
<path d="M534.696 385.712H353.867V409.185H534.696V385.712Z" fill="#E6E6E6"/>
<path d="M534.696 427.441H353.867V450.914H534.696V427.441Z" fill="#E6E6E6"/>
<path d="M514.701 134.464C524.303 134.464 532.088 126.68 532.088 117.077C532.088 107.474 524.303 99.6895 514.701 99.6895C505.098 99.6895 497.313 107.474 497.313 117.077C497.313 126.68 505.098 134.464 514.701 134.464Z" fill="#3B7D5E"/>
<path d="M534.334 175.325H353.505V295.298H534.334V175.325Z" fill="#E6E6E6"/>
<path d="M425.511 242.78C430.791 262.297 448.875 274.385 448.875 274.385C448.875 274.385 458.4 254.828 453.12 235.311C447.84 215.794 429.755 203.706 429.755 203.706C429.755 203.706 420.231 223.262 425.511 242.78Z" fill="#333333"/>
<path d="M433.269 238.585C447.757 252.689 449.527 274.369 449.527 274.369C449.527 274.369 427.807 273.183 413.319 259.079C398.831 244.976 397.062 223.296 397.062 223.296C397.062 223.296 418.781 224.482 433.269 238.585Z" fill="#3B7D5E"/>
<path d="M473.543 242.78C468.263 262.297 450.178 274.385 450.178 274.385C450.178 274.385 440.654 254.828 445.934 235.311C451.214 215.794 469.298 203.706 469.298 203.706C469.298 203.706 478.822 223.262 473.543 242.78Z" fill="#333333"/>
<path d="M465.784 238.585C451.296 252.689 449.527 274.369 449.527 274.369C449.527 274.369 471.247 273.183 485.735 259.079C500.223 244.976 501.992 223.296 501.992 223.296C501.992 223.296 480.272 224.482 465.784 238.585Z" fill="#3B7D5E"/>
</svg>
