<svg width="112" height="133" viewBox="0 0 112 133" fill="none" xmlns="http://www.w3.org/2000/svg">
<path d="M47.1439 128.184V4.34574C47.1439 2.1366 45.3531 0.345738 43.1439 0.345738H25.6439C23.4348 0.345738 21.6439 2.1366 21.6439 4.34574V86.8457C21.6439 89.0549 19.8531 90.8457 17.6439 90.8457H4.008C0.288318 90.8457 -1.41745 95.4786 1.41414 97.8907L40.5501 131.229C43.1472 133.441 47.1439 131.595 47.1439 128.184Z" fill="#31684E"/>
<path d="M64.144 4.00771V127.846C64.144 130.055 65.9348 131.846 68.144 131.846H85.644C87.8531 131.846 89.644 130.055 89.644 127.846V45.3457C89.644 43.1366 91.4348 41.3457 93.644 41.3457H107.28C111 41.3457 112.705 36.7128 109.874 34.3008L70.7378 0.962742C68.1407 -1.24961 64.144 0.596043 64.144 4.00771Z" fill="#31684E"/>
</svg>
