<svg width="502" height="292" viewBox="0 0 502 292" fill="none" xmlns="http://www.w3.org/2000/svg">
<path d="M215.303 137H271.429C271.818 136.987 272.187 136.823 272.457 136.543C272.727 136.263 272.878 135.889 272.878 135.5C272.878 135.111 272.727 134.737 272.457 134.457C272.187 134.177 271.818 134.013 271.429 134H215.303C214.915 134.013 214.546 134.177 214.276 134.457C214.006 134.737 213.854 135.111 213.854 135.5C213.854 135.889 214.006 136.263 214.276 136.543C214.546 136.823 214.915 136.987 215.303 137V137Z" fill="#E6E6E6"/>
<path d="M269.971 122.848L278.74 130.852C279.742 131.768 282.501 133.658 283.124 134.854C284.412 137.329 283.028 136.764 280.82 137.622C275.396 139.781 270.397 142.884 266.057 146.789C264.605 148.068 266.734 150.183 268.178 148.911C272.137 145.353 276.684 142.512 281.618 140.515C283.387 139.815 286.743 139.405 287.584 137.298C288.612 134.719 285.336 132.816 283.784 131.399L272.092 120.727C270.668 119.428 268.541 121.543 269.971 122.848L269.971 122.848Z" fill="#E6E6E6"/>
<path d="M221.761 101.931H263.065C265.884 85.6362 265.884 68.9786 263.065 52.6841H221.761C226.414 68.7699 226.414 85.8449 221.761 101.931V101.931Z" fill="#3B7D5E"/>
<path d="M91 182.849V61.3011L80 58.8491V193.849L163 193L162.72 182.116L91 182.849Z" fill="#F2F2F2"/>
<path d="M173 204H73V43H173V204ZM75 202H171V45H75V202Z" fill="#3F3D56"/>
<path d="M98.1969 53H82V55H98.1969V53Z" fill="#3F3D56"/>
<path d="M98.1969 58H82V60H98.1969V58Z" fill="#3F3D56"/>
<path d="M98.1969 63H82V65H98.1969V63Z" fill="#3F3D56"/>
<path d="M159.197 149H90V151H159.197V149Z" fill="#3F3D56"/>
<path d="M159.197 160H90V162H159.197V160Z" fill="#3F3D56"/>
<path d="M159.197 171H90V173H159.197V171Z" fill="#3F3D56"/>
<path d="M158 66C156.616 66 155.262 65.5895 154.111 64.8203C152.96 64.0511 152.063 62.9579 151.533 61.6788C151.003 60.3997 150.864 58.9922 151.135 57.6344C151.405 56.2765 152.071 55.0292 153.05 54.0503C154.029 53.0713 155.276 52.4046 156.634 52.1345C157.992 51.8644 159.4 52.003 160.679 52.5329C161.958 53.0627 163.051 53.9599 163.82 55.111C164.589 56.2622 165 57.6155 165 59C164.998 60.8559 164.26 62.6351 162.947 63.9474C161.635 65.2598 159.856 65.9979 158 66ZM158 54C157.011 54 156.044 54.2932 155.222 54.8426C154.4 55.3921 153.759 56.173 153.381 57.0866C153.002 58.0002 152.903 59.0055 153.096 59.9754C153.289 60.9454 153.765 61.8363 154.464 62.5355C155.164 63.2348 156.055 63.711 157.025 63.9039C157.994 64.0969 159 63.9978 159.913 63.6194C160.827 63.241 161.608 62.6001 162.157 61.7778C162.707 60.9556 163 59.9889 163 59C162.998 57.6744 162.471 56.4035 161.534 55.4661C160.597 54.5288 159.326 54.0015 158 54V54Z" fill="#3F3D56"/>
<path d="M160 126H89V80H160V126ZM91 124H158V82H91V124Z" fill="#3F3D56"/>
<path d="M90.5403 80.1573L89.4648 81.8438L158.465 125.844L159.54 124.158L90.5403 80.1573Z" fill="#3F3D56"/>
<path d="M158.463 80.157L89.4624 124.156L90.5378 125.843L159.538 81.8435L158.463 80.157Z" fill="#3F3D56"/>
<path d="M345 182.849V61.3011L334 58.8491V193.849L417 193L416.72 182.116L345 182.849Z" fill="#F2F2F2"/>
<path d="M428 202H328V41H428V202ZM330 200H426V43H330V200Z" fill="#3F3D56"/>
<path d="M353.197 51H337V53H353.197V51Z" fill="#3F3D56"/>
<path d="M353.197 56H337V58H353.197V56Z" fill="#3F3D56"/>
<path d="M353.197 61H337V63H353.197V61Z" fill="#3F3D56"/>
<path d="M413 64C411.616 64 410.262 63.5895 409.111 62.8203C407.96 62.0511 407.063 60.9579 406.533 59.6788C406.003 58.3997 405.864 56.9922 406.135 55.6344C406.405 54.2765 407.071 53.0292 408.05 52.0503C409.029 51.0713 410.276 50.4046 411.634 50.1345C412.992 49.8644 414.4 50.003 415.679 50.5329C416.958 51.0627 418.051 51.9599 418.82 53.111C419.589 54.2622 420 55.6155 420 57C419.998 58.8559 419.26 60.6351 417.947 61.9474C416.635 63.2598 414.856 63.9979 413 64ZM413 52C412.011 52 411.044 52.2932 410.222 52.8426C409.4 53.3921 408.759 54.173 408.381 55.0866C408.002 56.0002 407.903 57.0055 408.096 57.9754C408.289 58.9454 408.765 59.8363 409.464 60.5355C410.164 61.2348 411.055 61.711 412.025 61.9039C412.994 62.0969 414 61.9978 414.913 61.6194C415.827 61.241 416.608 60.6001 417.157 59.7778C417.707 58.9556 418 57.9889 418 57C417.998 55.6744 417.471 54.4035 416.534 53.4661C415.597 52.5288 414.326 52.0015 413 52V52Z" fill="#3F3D56"/>
<path d="M415 124H344V78H415V124ZM346 122H413V80H346V122Z" fill="#3F3D56"/>
<path d="M345.538 78.1568L344.462 79.8433L413.462 123.843L414.538 122.157L345.538 78.1568Z" fill="#3F3D56"/>
<path d="M413.465 78.1606L344.46 122.153L345.535 123.839L414.54 79.8472L413.465 78.1606Z" fill="#3F3D56"/>
<path d="M415 184H344V138H415V184ZM346 182H413V140H346V182Z" fill="#3F3D56"/>
<path d="M345.538 138.157L344.462 139.843L413.462 183.843L414.538 182.157L345.538 138.157Z" fill="#3F3D56"/>
<path d="M413.465 138.161L344.46 182.153L345.535 183.839L414.54 139.847L413.465 138.161Z" fill="#3F3D56"/>
<path d="M107.761 234.931H149.065C151.884 218.636 151.884 201.979 149.065 185.684H107.761C112.414 201.77 112.414 218.845 107.761 234.931V234.931Z" fill="#3B7D5E"/>
</svg>
