<svg width="941" height="635" viewBox="0 0 941 635" fill="none" xmlns="http://www.w3.org/2000/svg">
<path d="M573.336 173.897V570.906C573.334 575.636 571.454 580.171 568.108 583.515C564.763 586.858 560.227 588.737 555.498 588.737H394.32C391.977 588.741 389.656 588.282 387.49 587.388C385.325 586.493 383.357 585.18 381.7 583.524C380.043 581.867 378.729 579.9 377.833 577.735C376.938 575.57 376.478 573.249 376.481 570.906V173.897C376.481 171.554 376.943 169.234 377.839 167.07C378.736 164.906 380.05 162.939 381.706 161.283C383.362 159.626 385.329 158.312 387.493 157.416C389.658 156.519 391.977 156.058 394.32 156.058H418.443V159.153C418.444 163.049 419.991 166.785 422.746 169.539C425.5 172.294 429.236 173.842 433.132 173.842H515.103C518.998 173.842 522.734 172.294 525.489 169.539C528.243 166.785 529.791 163.049 529.791 159.153V156.058H555.498C557.84 156.057 560.16 156.518 562.325 157.414C564.49 158.311 566.456 159.625 568.113 161.281C569.77 162.938 571.084 164.905 571.98 167.069C572.876 169.234 573.337 171.554 573.336 173.897V173.897Z" fill="#3B7D5E"/>
<path d="M566.279 222.412H383.562V311.408H566.279V222.412Z" fill="#333333"/>
<path d="M457.128 283.521C461.911 301.202 478.294 312.153 478.294 312.153C478.294 312.153 486.922 294.436 482.139 276.755C477.356 259.074 460.973 248.124 460.973 248.124C460.973 248.124 452.345 265.84 457.128 283.521Z" fill="white"/>
<path d="M464.157 279.721C477.282 292.497 478.885 312.138 478.885 312.138C478.885 312.138 459.208 311.064 446.083 298.287C432.959 285.511 431.355 265.87 431.355 265.87C431.355 265.87 451.032 266.944 464.157 279.721Z" fill="#3B7D5E"/>
<path d="M500.641 283.521C495.858 301.202 479.475 312.153 479.475 312.153C479.475 312.153 470.846 294.436 475.629 276.755C480.413 259.074 496.796 248.124 496.796 248.124C496.796 248.124 505.424 265.84 500.641 283.521Z" fill="white"/>
<path d="M493.612 279.721C480.487 292.497 478.884 312.138 478.884 312.138C478.884 312.138 498.561 311.064 511.686 298.287C524.81 285.511 526.414 265.87 526.414 265.87C526.414 265.87 506.737 266.944 493.612 279.721Z" fill="#3B7D5E"/>
<path d="M549.937 361.246H399.904V369.481H549.937V361.246Z" fill="#F0F0F0"/>
<path d="M549.937 374.514H399.904V382.75H549.937V374.514Z" fill="#F0F0F0"/>
<path d="M549.937 387.783H399.904V396.019H549.937V387.783Z" fill="#F0F0F0"/>
<path d="M549.937 401.052H399.904V409.288H549.937V401.052Z" fill="#F0F0F0"/>
<path d="M503.46 472.025L470.065 448.318L446.358 481.713L479.753 505.42L503.46 472.025Z" fill="#F0F0F0"/>
<path d="M479.451 514.029C477.582 514.029 475.755 513.475 474.201 512.437C472.647 511.398 471.435 509.922 470.72 508.195C470.005 506.468 469.817 504.568 470.182 502.735C470.547 500.901 471.447 499.217 472.769 497.896C474.09 496.574 475.774 495.674 477.608 495.309C479.441 494.944 481.341 495.132 483.068 495.847C484.795 496.562 486.271 497.774 487.31 499.328C488.348 500.882 488.902 502.709 488.902 504.578C488.899 507.084 487.903 509.486 486.131 511.258C484.359 513.03 481.957 514.026 479.451 514.029V514.029ZM479.451 496.703C477.894 496.703 476.371 497.165 475.076 498.03C473.781 498.895 472.771 500.125 472.175 501.564C471.579 503.004 471.423 504.587 471.727 506.115C472.031 507.643 472.781 509.046 473.882 510.147C474.984 511.249 476.387 511.999 477.915 512.303C479.443 512.607 481.026 512.451 482.465 511.855C483.904 511.259 485.134 510.249 486 508.954C486.865 507.659 487.327 506.136 487.327 504.578C487.325 502.49 486.494 500.488 485.018 499.012C483.541 497.535 481.539 496.705 479.451 496.703V496.703Z" fill="#3F3D56"/>
<path d="M248.855 88.8386V485.848C248.853 490.578 246.972 495.113 243.627 498.457C240.282 501.8 235.746 503.679 231.016 503.679H69.8386C67.4955 503.683 65.1747 503.224 63.0091 502.33C60.8435 501.435 58.8757 500.122 57.2185 498.466C55.5613 496.809 54.2473 494.842 53.3518 492.677C52.4564 490.512 51.997 488.191 52 485.848V88.8386C51.9999 86.496 52.4613 84.1763 53.3577 82.012C54.2541 79.8476 55.5681 77.8811 57.2246 76.2246C58.8811 74.5681 60.8476 73.2541 63.0119 72.3577C65.1763 71.4612 67.496 70.9999 69.8386 71H93.9621V74.0952C93.9621 77.9908 95.5096 81.7268 98.2642 84.4814C101.019 87.236 104.755 88.7835 108.65 88.7835H190.621C194.517 88.7835 198.253 87.236 201.008 84.4814C203.762 81.7268 205.31 77.9908 205.31 74.0952V71H231.016C233.359 70.9992 235.679 71.4601 237.844 72.3563C240.008 73.2525 241.975 74.5665 243.632 76.2231C245.288 77.8797 246.602 79.8466 247.498 82.0112C248.395 84.1758 248.855 86.4958 248.855 88.8386V88.8386Z" fill="#F2F2F2"/>
<path d="M228.409 287.781H70.894V146.805H228.409V287.781ZM72.4692 286.206H226.834V148.38H72.4692V286.206Z" fill="#3F3D56"/>
<path d="M72.2066 147.005L71.1567 148.18L227.097 287.581L228.147 286.406L72.2066 147.005Z" fill="#3F3D56"/>
<path d="M227.098 147.006L71.1553 286.405L72.2051 287.579L228.148 148.181L227.098 147.006Z" fill="#3F3D56"/>
<path d="M227.622 328.735H71.6816V330.31H227.622V328.735Z" fill="#3F3D56"/>
<path d="M227.622 342.911H71.6816V344.486H227.622V342.911Z" fill="#3F3D56"/>
<path d="M227.622 357.088H71.6816V358.663H227.622V357.088Z" fill="#3F3D56"/>
<path d="M149.652 371.264H71.6816V372.839H149.652V371.264Z" fill="#3F3D56"/>
<path d="M149.652 385.44H71.6816V387.016H149.652V385.44Z" fill="#3F3D56"/>
<path d="M897.03 88.8386V485.848C897.028 490.578 895.147 495.113 891.802 498.457C888.457 501.8 883.921 503.679 879.191 503.679H718.014C715.671 503.683 713.35 503.224 711.184 502.33C709.019 501.435 707.051 500.122 705.394 498.466C703.737 496.809 702.423 494.842 701.527 492.677C700.632 490.512 700.172 488.191 700.175 485.848V88.8386C700.175 86.496 700.637 84.1763 701.533 82.012C702.429 79.8476 703.743 77.8811 705.4 76.2246C707.056 74.5681 709.023 73.2541 711.187 72.3577C713.352 71.4613 715.671 70.9999 718.014 71H742.137V74.0952C742.137 77.9908 743.685 81.7268 746.439 84.4814C749.194 87.236 752.93 88.7835 756.826 88.7835H838.797C842.692 88.7835 846.428 87.236 849.183 84.4814C851.937 81.7268 853.485 77.9908 853.485 74.0952V71H879.191C881.534 70.9992 883.854 71.4601 886.019 72.3563C888.183 73.2525 890.15 74.5665 891.807 76.2231C893.464 77.8797 894.778 79.8465 895.674 82.0112C896.57 84.1758 897.031 86.4958 897.03 88.8386V88.8386Z" fill="#F2F2F2"/>
<path d="M877.372 274.392H721.432V275.967H877.372V274.392Z" fill="#3F3D56"/>
<path d="M877.372 315.346H721.432V316.921H877.372V315.346Z" fill="#3F3D56"/>
<path d="M877.372 356.3H721.432V357.875H877.372V356.3Z" fill="#3F3D56"/>
<path d="M795.242 214.599C809.381 214.599 820.844 203.136 820.844 188.997C820.844 174.857 809.381 163.395 795.242 163.395C781.102 163.395 769.64 174.857 769.64 188.997C769.64 203.136 781.102 214.599 795.242 214.599Z" fill="#3B7D5E"/>
<path d="M849.019 267.304H837.993V292.507H849.019V267.304Z" fill="#3B7D5E"/>
<path d="M752.147 307.47H741.121V332.673H752.147V307.47Z" fill="#3B7D5E"/>
<path d="M816.729 347.637H805.703V372.839H816.729V347.637Z" fill="#3B7D5E"/>
<path d="M798.603 217.687C792.372 217.687 786.281 215.839 781.101 212.378C775.92 208.916 771.882 203.996 769.498 198.239C767.113 192.483 766.489 186.149 767.705 180.038C768.921 173.927 771.921 168.313 776.327 163.908C780.732 159.502 786.346 156.502 792.457 155.286C798.568 154.07 804.902 154.694 810.658 157.079C816.415 159.463 821.335 163.501 824.797 168.682C828.258 173.862 830.106 179.953 830.106 186.184C830.096 194.536 826.774 202.543 820.868 208.449C814.962 214.355 806.955 217.677 798.603 217.687V217.687ZM798.603 156.256C792.683 156.256 786.897 158.011 781.976 161.3C777.054 164.588 773.218 169.262 770.953 174.731C768.688 180.199 768.095 186.217 769.25 192.022C770.405 197.828 773.255 203.16 777.44 207.346C781.626 211.531 786.959 214.382 792.764 215.537C798.569 216.691 804.587 216.099 810.056 213.833C815.524 211.568 820.198 207.732 823.487 202.811C826.775 197.889 828.531 192.103 828.531 186.184C828.522 178.249 825.366 170.642 819.755 165.031C814.144 159.421 806.537 156.265 798.603 156.256V156.256Z" fill="#3F3D56"/>
<path d="M270.134 279.269L268.592 280.542L331.789 357.08L333.331 355.807L270.134 279.269Z" fill="#3F3D56"/>
<path d="M340.245 365.751C335.004 362.713 327.744 359.569 322.026 358.625L331.551 355.222L336.694 346.514C336.538 352.307 338.253 360.031 340.245 365.751Z" fill="#3F3D56"/>
<path d="M678.123 279.262L614.943 355.814L616.486 357.087L679.666 280.535L678.123 279.262Z" fill="#3F3D56"/>
<path d="M608.021 365.751C610.012 360.03 611.726 352.306 611.571 346.513L616.715 355.222L626.238 358.624C620.52 359.568 613.261 362.712 608.021 365.751Z" fill="#3F3D56"/>
</svg>
