<svg width="464" height="347" viewBox="0 0 464 347" fill="none" xmlns="http://www.w3.org/2000/svg">
<g clip-path="url(#clip0)">
<path d="M336.912 309.513L334.499 279.526L327.605 311.237C327.605 311.237 327.696 319.237 327.925 328H336.757C337.054 317.983 336.912 309.513 336.912 309.513Z" fill="#F2F2F2"/>
<path d="M212.859 320.178C212.18 317.374 211.701 314.525 211.425 311.653L210.46 301.28C210.054 298.439 209.637 295.936 209.218 293.726C206.145 277.973 202.972 277.403 202.972 277.403C202.836 277.508 202.704 277.623 202.567 277.743C202.194 278.082 201.847 278.448 201.529 278.839C196.476 285.26 193.048 301.916 191.248 312.965C190.253 319.069 189.758 323.461 189.758 323.461C189.758 323.461 190.208 325.331 190.822 328H213.878C213.791 325.366 213.449 322.746 212.859 320.178V320.178Z" fill="#F2F2F2"/>
<path d="M394.155 29H70.1856C31.5835 29 0 60.5835 0 99.1856V257.814C0 296.417 31.5835 328 70.1856 328H172.866L171.541 321.762C171.541 321.762 168.133 299.769 171.541 282.622C172.642 277.242 173.397 271.797 173.802 266.321C174.229 260.139 175.239 254.011 176.82 248.019C176.91 247.673 177.012 247.33 177.106 246.985C176.275 246.759 175.893 246.578 176.086 246.464C176.618 246.15 176.911 245.186 177.057 243.964C177.965 235.873 179.696 227.895 182.224 220.156C178.78 222.318 176.493 222.547 174.997 221.709C169.737 220.273 171.92 208.443 171.92 208.443C171.92 208.443 175.189 182.854 176.275 173.589C176.899 168.264 184.898 165.246 191.979 163.608C192.725 162.007 193.263 160.395 192.921 158.703C192.898 158.589 192.865 158.479 192.835 158.368C191.935 156.368 190.105 154.723 189.418 152.652C189.114 152.094 188.899 151.492 188.783 150.868C188.174 147.318 191.494 144.251 192.451 140.836C191.475 139.893 190.746 138.724 190.329 137.432C188.87 134.44 189.581 130.85 194.265 128.077C195.2 127.524 196.191 127.035 197.198 126.566C197.566 126.328 197.967 126.144 198.388 126.02C201.74 124.504 205.109 123.038 207.114 120.086C207.631 119.326 208.084 118.444 208.92 118.044C209.313 117.876 209.735 117.782 210.163 117.766C216.621 117.27 222.468 122.808 228.895 122.015C230.842 121.774 232.83 120.956 234.699 121.545C235.927 121.932 236.885 122.875 237.71 123.851C239.957 126.532 241.583 129.676 242.474 133.059C243.365 136.441 243.498 139.979 242.864 143.419C242.049 147.653 240.067 152.017 241.495 156.091C242.544 159.084 245.354 161.513 245.374 164.679C245.39 167.285 243.541 169.364 241.754 171.391C241.986 171.628 242.212 171.873 242.433 172.123C246.8 177.098 245.974 181.344 245.359 183.045L245.359 183.045L243.113 204.715L241.22 219.253C241.22 219.253 240.752 225.219 236.342 226.527C235.057 227.121 233.374 227.278 231.162 226.605C229.726 226.168 228.517 225.731 227.49 225.307C228.46 228.406 230.13 234.732 229.859 240.873C229.48 249.446 230.617 250.192 230.617 250.192C230.545 250.28 230.464 250.36 230.376 250.43C234.874 260.368 234.915 270.565 230.238 280.758C224.936 292.314 230.617 319.153 230.617 319.153C230.617 319.153 231.021 323.339 231.203 328H312.531C311.237 315.662 309.683 303.311 308.993 301.931C307.855 299.654 309.3 262.157 309.839 249.132C309.6 249.072 309.365 249.01 309.145 248.947C308.76 248.836 308.415 248.721 308.095 248.604C308.079 249.267 308.149 249.929 308.304 250.574C308.782 251.691 307.634 252.511 305.683 253.072C306.818 258.609 308.22 268.913 303.478 270.91C298.601 272.963 298.503 260.488 298.771 253.986C298.156 254.008 297.539 254.02 296.929 254.02C291.07 254.02 298.653 186.119 298.308 181.638C297.963 177.157 301.065 158.889 301.065 158.889C301.065 158.889 302.099 155.098 305.201 154.409C308.304 153.719 323.125 145.102 323.125 145.102C323.958 143.931 325.012 142.934 326.227 142.165V141.655C326.613 141.295 327.024 140.963 327.457 140.66C327.276 137.648 326.869 133.763 326.572 131.138C324.906 129.44 323.78 127.287 323.338 124.95C322.703 124.454 322.1 123.919 321.533 123.346C320.11 121.715 319.293 119.642 319.221 117.477C319.158 115.328 319.469 113.184 320.14 111.141C320.316 110.462 320.585 109.811 320.939 109.206C321.426 108.505 322.038 107.899 322.743 107.417C322.953 107.262 323.169 107.117 323.384 106.97C323.841 106.082 324.511 105.322 325.335 104.757C327.094 103.602 329.358 103.696 331.461 103.748C331.492 103.749 331.525 103.749 331.557 103.749C331.947 103.686 332.338 103.635 332.731 103.593C332.961 103.548 333.173 103.436 333.34 103.272C333.508 103.108 333.623 102.899 333.674 102.67C333.959 102.944 334.243 103.217 334.528 103.491C334.955 103.485 335.382 103.492 335.809 103.513C335.998 103.08 336.22 102.663 336.473 102.265C336.629 102.71 336.786 103.155 336.942 103.601C337.37 103.646 337.797 103.704 338.222 103.778C338.557 103.511 338.892 103.245 339.228 102.979C339.302 102.92 339.569 103.792 339.703 104.092C339.934 104.151 340.164 104.214 340.392 104.284C340.748 104.268 341.143 104.201 341.363 104.205C342.576 104.164 343.776 104.463 344.827 105.069C345.745 105.737 346.498 106.606 347.029 107.61C348.383 109.752 349.224 112.178 349.486 114.699C350.144 115.611 350.608 116.648 350.849 117.746C351.418 121.206 348.13 124.097 347.479 127.543C347.131 129.381 347.528 131.417 346.591 133.036C346.182 133.689 345.645 134.252 345.012 134.692C344.639 134.971 344.249 135.227 343.846 135.46C343.867 137.544 344.106 139.621 344.559 141.655L345.002 143.356C345.692 143.853 346.436 144.428 347.252 145.102C347.252 145.102 356.903 149.238 360.35 151.306C363.38 153.125 366.674 153.346 367.661 155.715L367.933 155.787C367.933 155.787 371.379 194.046 371.724 200.595C372.069 207.144 376.205 247.471 375.516 249.195C375.26 249.833 373.635 250.565 371.672 251.147C372.818 256.381 374.667 267.766 369.656 269.876C364.576 272.014 364.681 258.394 364.984 252.175C364.306 252.114 363.862 251.936 363.797 251.608C363.741 251.328 363.561 250.062 363.301 248.132C362.872 248.199 362.427 248.268 361.953 248.34C361.857 248.354 361.757 248.369 361.66 248.384C366.03 262.13 356.352 298.586 354.49 305.722C353.518 309.451 352.469 318.67 351.523 328H394.155C432.758 328 464.341 296.417 464.341 257.814V99.1856C464.341 60.5835 432.758 29 394.155 29Z" fill="#F2F2F2"/>
<path d="M103.957 155.456C129.93 155.456 150.985 136.296 150.985 112.661C150.985 89.0255 129.93 69.8652 103.957 69.8652C77.9839 69.8652 56.9287 89.0255 56.9287 112.661C56.9287 136.296 77.9839 155.456 103.957 155.456Z" fill="#4F4F4F"/>
<path d="M181.43 252.507C181.43 252.507 197.271 241.617 197.271 236.666C197.271 231.716 208.161 199.539 214.102 213.895C220.042 228.251 205.686 248.547 205.686 248.547C205.686 248.547 189.845 277.259 180.439 282.209C171.034 287.16 163.113 284.189 163.113 284.189V270.824L172.163 257.429C173.187 255.914 174.568 254.672 176.183 253.814C177.799 252.956 179.6 252.507 181.43 252.507V252.507Z" fill="#FFB9B9"/>
<path d="M136.403 176.687C136.403 176.687 160.143 184.193 162.618 187.658C165.094 191.124 166.084 185.183 173.014 207.955C179.945 230.726 181.677 252.755 181.677 252.755C181.677 252.755 164.599 258.448 166.579 280.725C168.559 303.001 163.609 327.258 163.609 327.258H157.428L143.807 285.18L160.143 221.321C160.143 221.321 136.92 182.051 136.403 176.687Z" fill="#3B7D5E"/>
<path d="M128.461 155.976C144.865 155.976 158.163 142.678 158.163 126.274C158.163 109.87 144.865 96.5723 128.461 96.5723C112.057 96.5723 98.7593 109.87 98.7593 126.274C98.7593 142.678 112.057 155.976 128.461 155.976Z" fill="#FFB9B9"/>
<path d="M139.847 148.55C139.847 148.55 131.432 176.272 138.857 180.232C146.283 184.192 154.698 202.013 154.698 202.013L141.827 216.369H112.125L98.7593 201.518L93.314 176.272L100.739 170.331C100.739 170.331 108.66 150.53 108.66 140.134C108.66 129.739 139.847 148.55 139.847 148.55Z" fill="#FFB9B9"/>
<path d="M142.322 179.243C142.322 179.243 136.381 177.758 139.847 183.698C143.312 189.638 146.777 200.529 134.401 201.024C122.025 201.519 109.65 195.084 105.689 181.718C101.729 168.352 100.244 169.342 98.7588 169.837C97.2737 170.332 81.4326 186.668 81.4326 186.668L86.878 217.36L88.8581 327.258H161.133C161.133 327.258 164.103 295.576 159.153 288.15C154.202 280.725 163.608 261.913 163.608 261.913C163.608 261.913 172.024 249.042 165.588 224.291C159.153 199.539 144.797 179.243 142.322 179.243Z" fill="#F5FAF8"/>
<path d="M102.224 169.837C102.224 169.837 94.7988 166.372 88.3633 172.312C81.9279 178.252 67.5719 183.203 67.5719 186.173C67.5719 189.143 79.9478 273.794 71.5322 288.645C63.1167 303.496 54.2061 327.257 54.2061 327.257H95.4984C95.4984 327.257 102.224 302.506 109.155 289.14C116.085 275.774 115.59 238.151 113.61 226.766C111.63 215.38 102.224 169.837 102.224 169.837Z" fill="#3B7D5E"/>
<path d="M58.6616 301.02L61.0724 327.257H87.8275L85.3934 294.585L58.6616 301.02Z" fill="#FFB9B9"/>
<path d="M180.439 287.159L186.875 327.257H329.939L342.315 246.566L180.439 287.159Z" fill="#4F4F4F"/>
<path d="M347.761 241.121L349.246 248.547L164.104 293.1V286.664L347.761 241.121Z" fill="#4F4F4F"/>
<path d="M269.545 254.487L268.555 262.903L279.446 261.418L274.991 253.002L269.545 254.487Z" fill="#4F4F4F"/>
<path d="M209.646 169.342C209.646 169.342 231.428 167.857 237.368 184.688C243.309 201.519 257.17 231.716 262.615 236.171C268.06 240.627 274.001 252.508 273.011 256.468" fill="#4F4F4F"/>
<path d="M212.864 169.094C212.864 171.417 210.393 173.301 206.429 173.301C202.464 173.301 200.488 171.417 200.488 169.094C200.488 166.77 202.464 164.886 206.429 164.886C210.393 164.886 212.864 166.77 212.864 169.094Z" fill="#F5FAF8"/>
<path d="M176.232 246.32C176.232 246.32 179.945 230.726 173.014 207.955C166.084 185.183 165.094 191.124 162.618 187.658C160.143 184.193 136.403 176.687 136.403 176.687C136.573 178.449 139.195 183.873 142.638 190.361C142.018 188.022 141.079 185.78 139.847 183.698C136.382 177.758 142.322 179.243 142.322 179.243C144.797 179.243 159.153 199.539 165.589 224.291C172.024 249.042 163.609 261.913 163.609 261.913L176.232 246.32Z" fill="#3B7D5E"/>
<path d="M136.629 176.52C136.629 176.52 139.56 187.637 142.055 189.256C144.549 190.875 159.346 206.248 159.346 206.248L157.42 193.846L149.5 181.965L147.393 180.436L136.629 176.52Z" fill="#3B7D5E"/>
<path opacity="0.1" d="M70.7898 210.677L71.48 185.183C71.48 185.183 55.1962 192.113 53.7111 221.815C52.226 251.517 56.1863 307.456 61.6317 307.951C67.077 308.446 92.8187 302.505 92.8187 302.505C92.8187 302.505 96.779 230.726 95.2939 221.32C93.8088 211.914 70.7898 210.677 70.7898 210.677Z" fill="black"/>
<path d="M72.0273 185.183H68.0146C68.0146 185.183 51.7309 192.113 50.2458 221.815C48.7607 251.517 52.721 307.456 58.1663 307.951C63.6117 308.446 89.3534 302.505 89.3534 302.505C89.3534 302.505 93.3137 230.726 91.8286 221.32C90.3435 211.914 72.0273 185.183 72.0273 185.183Z" fill="#3B7D5E"/>
<path d="M93.0661 152.758C110.017 152.758 123.758 137.354 123.758 118.353C123.758 99.3518 110.017 83.9482 93.0661 83.9482C76.1153 83.9482 62.374 99.3518 62.374 118.353C62.374 137.354 76.1153 152.758 93.0661 152.758Z" fill="#4F4F4F"/>
<path d="M115.095 146.322C118.513 146.322 121.283 142.222 121.283 137.164C121.283 132.106 118.513 128.006 115.095 128.006C111.678 128.006 108.907 132.106 108.907 137.164C108.907 142.222 111.678 146.322 115.095 146.322Z" fill="#FFB9B9"/>
<path d="M62.3741 109.195C76.3175 109.195 87.6208 97.8912 87.6208 83.9479C87.6208 70.0045 76.3175 58.7012 62.3741 58.7012C48.4308 58.7012 37.1274 70.0045 37.1274 83.9479C37.1274 97.8912 48.4308 109.195 62.3741 109.195Z" fill="#4F4F4F"/>
<path d="M65.6375 104.174C61.9698 106.04 57.9016 106.982 53.7869 106.916C49.6723 106.85 45.6361 105.78 42.0297 103.798C38.4234 101.816 35.3563 98.982 33.0955 95.5435C30.8347 92.105 29.4488 88.1659 29.0584 84.0693C28.5193 87.6055 28.7378 91.2159 29.6996 94.6613C30.6613 98.1066 32.3443 101.308 34.637 104.054C36.9297 106.8 39.7798 109.027 42.9983 110.588C46.2168 112.149 49.7303 113.008 53.306 113.108C56.8817 113.208 60.4378 112.548 63.7388 111.17C67.0398 109.792 70.0102 107.728 72.4533 105.115C74.8963 102.502 76.7562 99.4 77.9096 96.0139C79.063 92.6279 79.4837 89.0355 79.1437 85.4746C78.543 89.4414 77.0041 93.2075 74.655 96.4599C72.3059 99.7123 69.2144 102.357 65.6375 104.174V104.174Z" fill="#4F4F4F"/>
<path d="M48.5235 88.1211C45.9883 84.8796 44.284 81.0674 43.559 77.0167C42.834 72.9659 43.1102 68.7993 44.3636 64.8796C45.617 60.96 47.8096 57.4062 50.7505 54.5277C53.6914 51.6493 57.2914 49.5333 61.237 48.3643C57.6631 48.5136 54.1616 49.4208 50.9648 51.0257C47.768 52.6305 44.9487 54.8965 42.6939 57.6734C40.4391 60.4503 38.8001 63.6747 37.8857 67.1329C36.9712 70.5911 36.8022 74.2041 37.3897 77.7326C37.9773 81.2611 39.308 84.6244 41.2937 87.5997C43.2794 90.575 45.8748 93.0943 48.9078 94.9907C51.9408 96.8871 55.3422 98.1172 58.8866 98.5996C62.431 99.082 66.0374 98.8056 69.4669 97.7887C65.4586 97.9602 61.4672 97.1725 57.8245 95.491C54.1818 93.8096 50.9932 91.2829 48.5235 88.1211Z" fill="#4F4F4F"/>
<path d="M130.194 116.126C140.036 116.126 148.015 110.363 148.015 103.255C148.015 96.1463 140.036 90.3838 130.194 90.3838C120.351 90.3838 112.373 96.1463 112.373 103.255C112.373 110.363 120.351 116.126 130.194 116.126Z" fill="#4F4F4F"/>
</g>
<defs>
<clipPath id="clip0">
<rect width="464" height="347" fill="white"/>
</clipPath>
</defs>
</svg>
