<svg width="980" height="490" viewBox="0 0 980 490" fill="none" xmlns="http://www.w3.org/2000/svg">
<path d="M246.691 35.0003C223.843 34.961 201.203 39.352 180.025 47.9301C179.173 48.2796 178.317 48.6307 177.461 48.9898C145.277 62.5711 117.817 85.3496 98.5226 114.47C79.2285 143.591 68.9587 177.759 69.0001 212.692V406.585C69.0024 408.633 69.8169 410.596 71.2648 412.044C72.7128 413.492 74.6759 414.306 76.7236 414.309L76.877 414.322C225.74 441.356 370.46 455.055 507.136 455.055C509.185 455.055 511.232 455.051 513.277 455.045C647.627 454.636 778.445 440.938 902.097 414.328L902.277 414.309C904.324 414.306 906.288 413.492 907.736 412.044C909.184 410.596 909.998 408.633 910 406.585V42.7238C909.998 40.6761 909.184 38.7129 907.736 37.265C906.288 35.8171 904.324 35.0026 902.277 35.0003L246.691 35.0003Z" fill="#3B7D5E"/>
<path d="M709.018 189.634C707.679 189.656 706.403 190.203 705.464 191.157C704.525 192.112 703.999 193.397 703.999 194.736C703.999 196.075 704.525 197.36 705.464 198.315C706.403 199.27 707.679 199.817 709.018 199.839H836.958C837.628 199.851 838.295 199.73 838.919 199.484C839.543 199.238 840.112 198.872 840.594 198.406C841.076 197.939 841.462 197.383 841.729 196.768C841.996 196.152 842.139 195.491 842.15 194.82C842.161 194.149 842.04 193.483 841.793 192.86C841.546 192.236 841.179 191.667 840.713 191.185C840.246 190.704 839.689 190.319 839.073 190.052C838.458 189.786 837.796 189.644 837.125 189.634C837.07 189.633 837.014 189.633 836.958 189.634H709.018Z" fill="#4F4F4F"/>
<path d="M865.972 188.213C865.878 188.306 865.804 188.417 865.754 188.539C865.703 188.661 865.677 188.791 865.677 188.923C865.677 189.055 865.703 189.186 865.754 189.307C865.804 189.429 865.878 189.54 865.972 189.633L870.282 193.944H859.653C859.387 193.944 859.131 194.049 858.943 194.238C858.755 194.426 858.649 194.681 858.649 194.948C858.649 195.214 858.755 195.469 858.943 195.658C859.131 195.846 859.387 195.952 859.653 195.952H870.282L865.972 200.262C865.878 200.355 865.804 200.466 865.754 200.588C865.703 200.71 865.677 200.84 865.677 200.972C865.677 201.104 865.703 201.235 865.754 201.356C865.804 201.478 865.878 201.589 865.972 201.682C866.065 201.775 866.175 201.849 866.297 201.9C866.419 201.95 866.55 201.976 866.682 201.976C866.813 201.976 866.944 201.95 867.066 201.9C867.188 201.849 867.298 201.775 867.392 201.682L873.416 195.658C873.604 195.469 873.71 195.214 873.71 194.948C873.71 194.681 873.604 194.426 873.416 194.238L867.392 188.213C867.298 188.12 867.188 188.046 867.066 187.995C866.944 187.945 866.813 187.919 866.682 187.919C866.55 187.919 866.419 187.945 866.297 187.995C866.175 188.046 866.065 188.12 865.972 188.213Z" fill="white"/>
<path d="M679.95 188.213C680.044 188.306 680.117 188.417 680.168 188.539C680.218 188.661 680.244 188.791 680.244 188.923C680.244 189.055 680.218 189.186 680.168 189.307C680.117 189.429 680.044 189.54 679.95 189.633L675.64 193.944H686.269C686.401 193.943 686.532 193.969 686.654 194.019C686.776 194.069 686.887 194.143 686.981 194.237C687.074 194.33 687.149 194.441 687.199 194.563C687.25 194.685 687.276 194.816 687.276 194.948C687.276 195.08 687.25 195.211 687.199 195.333C687.149 195.455 687.074 195.565 686.981 195.659C686.887 195.752 686.776 195.826 686.654 195.876C686.532 195.926 686.401 195.952 686.269 195.952H675.64L679.95 200.262C680.139 200.45 680.244 200.706 680.244 200.972C680.244 201.238 680.139 201.494 679.95 201.682C679.762 201.87 679.507 201.976 679.24 201.976C678.974 201.976 678.719 201.87 678.53 201.682L672.506 195.658C672.317 195.469 672.212 195.214 672.212 194.948C672.212 194.681 672.317 194.426 672.506 194.238L678.53 188.213C678.624 188.12 678.734 188.046 678.856 187.995C678.978 187.945 679.108 187.919 679.24 187.919C679.372 187.919 679.503 187.945 679.625 187.995C679.746 188.046 679.857 188.12 679.95 188.213V188.213Z" fill="white"/>
<g opacity="0.4">
<path opacity="0.4" d="M714.185 83.7259C717.213 83.7259 719.668 81.2709 719.668 78.2424C719.668 75.2139 717.213 72.7588 714.185 72.7588C711.156 72.7588 708.701 75.2139 708.701 78.2424C708.701 81.2709 711.156 83.7259 714.185 83.7259Z" fill="white"/>
<path opacity="0.4" d="M737.033 83.7259C740.061 83.7259 742.516 81.2709 742.516 78.2424C742.516 75.2139 740.061 72.7588 737.033 72.7588C734.004 72.7588 731.549 75.2139 731.549 78.2424C731.549 81.2709 734.004 83.7259 737.033 83.7259Z" fill="white"/>
<path opacity="0.4" d="M759.881 83.7259C762.91 83.7259 765.365 81.2709 765.365 78.2424C765.365 75.2139 762.91 72.7588 759.881 72.7588C756.853 72.7588 754.397 75.2139 754.397 78.2424C754.397 81.2709 756.853 83.7259 759.881 83.7259Z" fill="white"/>
<path opacity="0.4" d="M782.729 83.7259C785.758 83.7259 788.213 81.2709 788.213 78.2424C788.213 75.2139 785.758 72.7588 782.729 72.7588C779.701 72.7588 777.246 75.2139 777.246 78.2424C777.246 81.2709 779.701 83.7259 782.729 83.7259Z" fill="white"/>
<path opacity="0.4" d="M805.577 83.7259C808.606 83.7259 811.061 81.2709 811.061 78.2424C811.061 75.2139 808.606 72.7588 805.577 72.7588C802.549 72.7588 800.094 75.2139 800.094 78.2424C800.094 81.2709 802.549 83.7259 805.577 83.7259Z" fill="white"/>
<path opacity="0.4" d="M828.426 83.7259C831.454 83.7259 833.909 81.2709 833.909 78.2424C833.909 75.2139 831.454 72.7588 828.426 72.7588C825.397 72.7588 822.942 75.2139 822.942 78.2424C822.942 81.2709 825.397 83.7259 828.426 83.7259Z" fill="white"/>
<path opacity="0.4" d="M851.274 83.7259C854.302 83.7259 856.758 81.2709 856.758 78.2424C856.758 75.2139 854.302 72.7588 851.274 72.7588C848.245 72.7588 845.79 75.2139 845.79 78.2424C845.79 81.2709 848.245 83.7259 851.274 83.7259Z" fill="white"/>
<path opacity="0.4" d="M714.185 101.09C717.213 101.09 719.668 98.6351 719.668 95.6066C719.668 92.5781 717.213 90.123 714.185 90.123C711.156 90.123 708.701 92.5781 708.701 95.6066C708.701 98.6351 711.156 101.09 714.185 101.09Z" fill="white"/>
<path opacity="0.4" d="M737.033 101.09C740.061 101.09 742.516 98.6351 742.516 95.6066C742.516 92.5781 740.061 90.123 737.033 90.123C734.004 90.123 731.549 92.5781 731.549 95.6066C731.549 98.6351 734.004 101.09 737.033 101.09Z" fill="white"/>
<path opacity="0.4" d="M759.881 101.09C762.91 101.09 765.365 98.6351 765.365 95.6066C765.365 92.5781 762.91 90.123 759.881 90.123C756.853 90.123 754.397 92.5781 754.397 95.6066C754.397 98.6351 756.853 101.09 759.881 101.09Z" fill="white"/>
<path opacity="0.4" d="M782.729 101.09C785.758 101.09 788.213 98.6351 788.213 95.6066C788.213 92.5781 785.758 90.123 782.729 90.123C779.701 90.123 777.246 92.5781 777.246 95.6066C777.246 98.6351 779.701 101.09 782.729 101.09Z" fill="white"/>
<path opacity="0.4" d="M805.577 101.09C808.606 101.09 811.061 98.6351 811.061 95.6066C811.061 92.5781 808.606 90.123 805.577 90.123C802.549 90.123 800.094 92.5781 800.094 95.6066C800.094 98.6351 802.549 101.09 805.577 101.09Z" fill="white"/>
<path opacity="0.4" d="M828.426 101.09C831.454 101.09 833.909 98.6351 833.909 95.6066C833.909 92.5781 831.454 90.123 828.426 90.123C825.397 90.123 822.942 92.5781 822.942 95.6066C822.942 98.6351 825.397 101.09 828.426 101.09Z" fill="white"/>
<path opacity="0.4" d="M851.274 101.09C854.302 101.09 856.758 98.6351 856.758 95.6066C856.758 92.5781 854.302 90.123 851.274 90.123C848.245 90.123 845.79 92.5781 845.79 95.6066C845.79 98.6351 848.245 101.09 851.274 101.09Z" fill="white"/>
<path opacity="0.4" d="M714.185 118.455C717.213 118.455 719.668 116 719.668 112.972C719.668 109.943 717.213 107.488 714.185 107.488C711.156 107.488 708.701 109.943 708.701 112.972C708.701 116 711.156 118.455 714.185 118.455Z" fill="white"/>
<path opacity="0.4" d="M737.033 118.455C740.061 118.455 742.516 116 742.516 112.972C742.516 109.943 740.061 107.488 737.033 107.488C734.004 107.488 731.549 109.943 731.549 112.972C731.549 116 734.004 118.455 737.033 118.455Z" fill="white"/>
<path opacity="0.4" d="M759.881 118.455C762.91 118.455 765.365 116 765.365 112.972C765.365 109.943 762.91 107.488 759.881 107.488C756.853 107.488 754.397 109.943 754.397 112.972C754.397 116 756.853 118.455 759.881 118.455Z" fill="white"/>
<path opacity="0.4" d="M782.729 118.455C785.758 118.455 788.213 116 788.213 112.972C788.213 109.943 785.758 107.488 782.729 107.488C779.701 107.488 777.246 109.943 777.246 112.972C777.246 116 779.701 118.455 782.729 118.455Z" fill="white"/>
<path opacity="0.4" d="M805.577 118.455C808.606 118.455 811.061 116 811.061 112.972C811.061 109.943 808.606 107.488 805.577 107.488C802.549 107.488 800.094 109.943 800.094 112.972C800.094 116 802.549 118.455 805.577 118.455Z" fill="white"/>
<path opacity="0.4" d="M828.426 118.455C831.454 118.455 833.909 116 833.909 112.972C833.909 109.943 831.454 107.488 828.426 107.488C825.397 107.488 822.942 109.943 822.942 112.972C822.942 116 825.397 118.455 828.426 118.455Z" fill="white"/>
<path opacity="0.4" d="M851.274 118.455C854.302 118.455 856.758 116 856.758 112.972C856.758 109.943 854.302 107.488 851.274 107.488C848.245 107.488 845.79 109.943 845.79 112.972C845.79 116 848.245 118.455 851.274 118.455Z" fill="white"/>
<path opacity="0.4" d="M714.185 135.82C717.213 135.82 719.668 133.365 719.668 130.336C719.668 127.308 717.213 124.853 714.185 124.853C711.156 124.853 708.701 127.308 708.701 130.336C708.701 133.365 711.156 135.82 714.185 135.82Z" fill="white"/>
<path opacity="0.4" d="M737.033 135.82C740.061 135.82 742.516 133.365 742.516 130.336C742.516 127.308 740.061 124.853 737.033 124.853C734.004 124.853 731.549 127.308 731.549 130.336C731.549 133.365 734.004 135.82 737.033 135.82Z" fill="white"/>
<path opacity="0.4" d="M714.185 153.184C717.213 153.184 719.668 150.729 719.668 147.7C719.668 144.672 717.213 142.217 714.185 142.217C711.156 142.217 708.701 144.672 708.701 147.7C708.701 150.729 711.156 153.184 714.185 153.184Z" fill="white"/>
<path opacity="0.4" d="M737.033 153.184C740.061 153.184 742.516 150.729 742.516 147.7C742.516 144.672 740.061 142.217 737.033 142.217C734.004 142.217 731.549 144.672 731.549 147.7C731.549 150.729 734.004 153.184 737.033 153.184Z" fill="white"/>
<path opacity="0.4" d="M759.881 153.184C762.91 153.184 765.365 150.729 765.365 147.7C765.365 144.672 762.91 142.217 759.881 142.217C756.853 142.217 754.397 144.672 754.397 147.7C754.397 150.729 756.853 153.184 759.881 153.184Z" fill="white"/>
<path opacity="0.4" d="M759.881 135.82C762.91 135.82 765.365 133.365 765.365 130.336C765.365 127.308 762.91 124.853 759.881 124.853C756.853 124.853 754.397 127.308 754.397 130.336C754.397 133.365 756.853 135.82 759.881 135.82Z" fill="white"/>
<path opacity="0.4" d="M782.729 135.82C785.758 135.82 788.213 133.365 788.213 130.336C788.213 127.308 785.758 124.853 782.729 124.853C779.701 124.853 777.246 127.308 777.246 130.336C777.246 133.365 779.701 135.82 782.729 135.82Z" fill="white"/>
<path opacity="0.4" d="M805.577 135.82C808.606 135.82 811.061 133.365 811.061 130.336C811.061 127.308 808.606 124.853 805.577 124.853C802.549 124.853 800.094 127.308 800.094 130.336C800.094 133.365 802.549 135.82 805.577 135.82Z" fill="white"/>
<path opacity="0.4" d="M828.426 135.82C831.454 135.82 833.909 133.365 833.909 130.336C833.909 127.308 831.454 124.853 828.426 124.853C825.397 124.853 822.942 127.308 822.942 130.336C822.942 133.365 825.397 135.82 828.426 135.82Z" fill="white"/>
<path opacity="0.4" d="M851.274 135.82C854.302 135.82 856.758 133.365 856.758 130.336C856.758 127.308 854.302 124.853 851.274 124.853C848.245 124.853 845.79 127.308 845.79 130.336C845.79 133.365 848.245 135.82 851.274 135.82Z" fill="white"/>
</g>
<path d="M635.523 357.205C629.536 357.205 623.684 355.43 618.706 352.104C613.728 348.778 609.849 344.05 607.558 338.519C605.267 332.988 604.667 326.902 605.835 321.03C607.003 315.159 609.886 309.765 614.119 305.532C618.352 301.298 623.746 298.416 629.618 297.248C635.489 296.08 641.576 296.679 647.107 298.97C652.638 301.261 657.365 305.141 660.691 310.119C664.017 315.097 665.793 320.949 665.793 326.936C665.783 334.961 662.591 342.655 656.917 348.329C651.242 354.004 643.548 357.196 635.523 357.205V357.205ZM635.523 298.382C629.876 298.382 624.355 300.057 619.66 303.194C614.964 306.332 611.304 310.791 609.143 316.009C606.982 321.226 606.417 326.967 607.518 332.506C608.62 338.045 611.34 343.132 615.333 347.126C619.326 351.119 624.414 353.838 629.953 354.94C635.491 356.042 641.232 355.476 646.45 353.315C651.667 351.154 656.127 347.494 659.264 342.799C662.402 338.103 664.076 332.583 664.076 326.936C664.068 319.365 661.057 312.108 655.704 306.755C650.351 301.402 643.093 298.391 635.523 298.382V298.382Z" fill="#4F4F4F"/>
<path d="M647.128 324.034H638.424V315.33C638.424 314.561 638.119 313.823 637.575 313.278C637.031 312.734 636.293 312.429 635.523 312.429C634.754 312.429 634.016 312.734 633.472 313.278C632.928 313.823 632.622 314.561 632.622 315.33V324.034H623.918C623.149 324.034 622.411 324.339 621.867 324.883C621.322 325.428 621.017 326.166 621.017 326.935C621.017 327.704 621.322 328.442 621.867 328.986C622.411 329.531 623.149 329.836 623.918 329.836H632.622V338.54C632.622 339.31 632.928 340.047 633.472 340.592C634.016 341.136 634.754 341.441 635.523 341.441C636.293 341.441 637.031 341.136 637.575 340.592C638.119 340.047 638.424 339.31 638.424 338.54V329.836H647.128C647.898 329.836 648.636 329.531 649.18 328.986C649.724 328.442 650.029 327.704 650.029 326.935C650.029 326.166 649.724 325.428 649.18 324.883C648.636 324.339 647.898 324.034 647.128 324.034V324.034Z" fill="white"/>
<g opacity="0.4">
<path opacity="0.4" d="M115.362 360.921C117.743 360.921 119.673 358.99 119.673 356.609C119.673 354.228 117.743 352.298 115.362 352.298C112.981 352.298 111.05 354.228 111.05 356.609C111.05 358.99 112.981 360.921 115.362 360.921Z" fill="white"/>
<path opacity="0.4" d="M115.362 342.957C117.743 342.957 119.673 341.026 119.673 338.645C119.673 336.264 117.743 334.334 115.362 334.334C112.981 334.334 111.05 336.264 111.05 338.645C111.05 341.026 112.981 342.957 115.362 342.957Z" fill="white"/>
<path opacity="0.4" d="M115.362 324.993C117.743 324.993 119.673 323.063 119.673 320.681C119.673 318.3 117.743 316.37 115.362 316.37C112.981 316.37 111.05 318.3 111.05 320.681C111.05 323.063 112.981 324.993 115.362 324.993Z" fill="white"/>
<path opacity="0.4" d="M115.362 307.029C117.743 307.029 119.673 305.099 119.673 302.718C119.673 300.336 117.743 298.406 115.362 298.406C112.981 298.406 111.05 300.336 111.05 302.718C111.05 305.099 112.981 307.029 115.362 307.029Z" fill="white"/>
<path opacity="0.4" d="M115.362 289.065C117.743 289.065 119.673 287.135 119.673 284.754C119.673 282.373 117.743 280.442 115.362 280.442C112.981 280.442 111.05 282.373 111.05 284.754C111.05 287.135 112.981 289.065 115.362 289.065Z" fill="white"/>
<path opacity="0.4" d="M115.362 271.101C117.743 271.101 119.673 269.171 119.673 266.79C119.673 264.409 117.743 262.479 115.362 262.479C112.981 262.479 111.05 264.409 111.05 266.79C111.05 269.171 112.981 271.101 115.362 271.101Z" fill="white"/>
<path opacity="0.4" d="M115.362 253.138C117.743 253.138 119.673 251.208 119.673 248.827C119.673 246.446 117.743 244.516 115.362 244.516C112.981 244.516 111.051 246.446 111.051 248.827C111.051 251.208 112.981 253.138 115.362 253.138Z" fill="white"/>
<path opacity="0.4" d="M129.014 360.921C131.395 360.921 133.325 358.99 133.325 356.609C133.325 354.228 131.395 352.298 129.014 352.298C126.633 352.298 124.703 354.228 124.703 356.609C124.703 358.99 126.633 360.921 129.014 360.921Z" fill="white"/>
<path opacity="0.4" d="M129.014 342.957C131.395 342.957 133.325 341.026 133.325 338.645C133.325 336.264 131.395 334.334 129.014 334.334C126.633 334.334 124.703 336.264 124.703 338.645C124.703 341.026 126.633 342.957 129.014 342.957Z" fill="white"/>
<path opacity="0.4" d="M129.014 324.993C131.395 324.993 133.325 323.063 133.325 320.681C133.325 318.3 131.395 316.37 129.014 316.37C126.633 316.37 124.703 318.3 124.703 320.681C124.703 323.063 126.633 324.993 129.014 324.993Z" fill="white"/>
<path opacity="0.4" d="M129.014 307.029C131.395 307.029 133.325 305.099 133.325 302.718C133.325 300.336 131.395 298.406 129.014 298.406C126.633 298.406 124.703 300.336 124.703 302.718C124.703 305.099 126.633 307.029 129.014 307.029Z" fill="white"/>
<path opacity="0.4" d="M129.014 289.065C131.395 289.065 133.325 287.135 133.325 284.754C133.325 282.373 131.395 280.442 129.014 280.442C126.633 280.442 124.703 282.373 124.703 284.754C124.703 287.135 126.633 289.065 129.014 289.065Z" fill="white"/>
<path opacity="0.4" d="M129.014 271.101C131.395 271.101 133.325 269.171 133.325 266.79C133.325 264.409 131.395 262.479 129.014 262.479C126.633 262.479 124.703 264.409 124.703 266.79C124.703 269.171 126.633 271.101 129.014 271.101Z" fill="white"/>
<path opacity="0.4" d="M129.014 253.137C131.395 253.137 133.325 251.207 133.325 248.826C133.325 246.445 131.395 244.515 129.014 244.515C126.633 244.515 124.703 246.445 124.703 248.826C124.703 251.207 126.633 253.137 129.014 253.137Z" fill="white"/>
<path opacity="0.4" d="M142.667 360.921C145.048 360.921 146.978 358.99 146.978 356.609C146.978 354.228 145.048 352.298 142.667 352.298C140.286 352.298 138.355 354.228 138.355 356.609C138.355 358.99 140.286 360.921 142.667 360.921Z" fill="white"/>
<path opacity="0.4" d="M142.667 342.957C145.048 342.957 146.978 341.026 146.978 338.645C146.978 336.264 145.048 334.334 142.667 334.334C140.286 334.334 138.355 336.264 138.355 338.645C138.355 341.026 140.286 342.957 142.667 342.957Z" fill="white"/>
<path opacity="0.4" d="M142.667 324.993C145.048 324.993 146.978 323.063 146.978 320.681C146.978 318.3 145.048 316.37 142.667 316.37C140.286 316.37 138.355 318.3 138.355 320.681C138.355 323.063 140.286 324.993 142.667 324.993Z" fill="white"/>
<path opacity="0.4" d="M142.667 307.029C145.048 307.029 146.978 305.099 146.978 302.718C146.978 300.336 145.048 298.406 142.667 298.406C140.286 298.406 138.355 300.336 138.355 302.718C138.355 305.099 140.286 307.029 142.667 307.029Z" fill="white"/>
<path opacity="0.4" d="M142.667 289.065C145.048 289.065 146.978 287.135 146.978 284.754C146.978 282.373 145.048 280.442 142.667 280.442C140.286 280.442 138.355 282.373 138.355 284.754C138.355 287.135 140.286 289.065 142.667 289.065Z" fill="white"/>
<path opacity="0.4" d="M142.667 271.101C145.048 271.101 146.978 269.171 146.978 266.79C146.978 264.409 145.048 262.479 142.667 262.479C140.286 262.479 138.355 264.409 138.355 266.79C138.355 269.171 140.286 271.101 142.667 271.101Z" fill="white"/>
<path opacity="0.4" d="M142.667 253.137C145.048 253.137 146.978 251.207 146.978 248.826C146.978 246.445 145.048 244.515 142.667 244.515C140.286 244.515 138.355 246.445 138.355 248.826C138.355 251.207 140.286 253.137 142.667 253.137Z" fill="white"/>
<path opacity="0.4" d="M156.319 360.921C158.7 360.921 160.63 358.99 160.63 356.609C160.63 354.228 158.7 352.298 156.319 352.298C153.938 352.298 152.008 354.228 152.008 356.609C152.008 358.99 153.938 360.921 156.319 360.921Z" fill="white"/>
<path opacity="0.4" d="M156.319 342.957C158.7 342.957 160.63 341.026 160.63 338.645C160.63 336.264 158.7 334.334 156.319 334.334C153.938 334.334 152.008 336.264 152.008 338.645C152.008 341.026 153.938 342.957 156.319 342.957Z" fill="white"/>
<path opacity="0.4" d="M169.972 360.921C172.353 360.921 174.283 358.99 174.283 356.609C174.283 354.228 172.353 352.298 169.972 352.298C167.591 352.298 165.66 354.228 165.66 356.609C165.66 358.99 167.591 360.921 169.972 360.921Z" fill="white"/>
<path opacity="0.4" d="M169.972 342.957C172.353 342.957 174.283 341.026 174.283 338.645C174.283 336.264 172.353 334.334 169.972 334.334C167.591 334.334 165.66 336.264 165.66 338.645C165.66 341.026 167.591 342.957 169.972 342.957Z" fill="white"/>
<path opacity="0.4" d="M169.972 324.993C172.353 324.993 174.283 323.063 174.283 320.681C174.283 318.3 172.353 316.37 169.972 316.37C167.591 316.37 165.66 318.3 165.66 320.681C165.66 323.063 167.591 324.993 169.972 324.993Z" fill="white"/>
<path opacity="0.4" d="M156.319 324.993C158.7 324.993 160.63 323.063 160.63 320.681C160.63 318.3 158.7 316.37 156.319 316.37C153.938 316.37 152.008 318.3 152.008 320.681C152.008 323.063 153.938 324.993 156.319 324.993Z" fill="white"/>
<path opacity="0.4" d="M156.319 307.029C158.7 307.029 160.63 305.099 160.63 302.718C160.63 300.336 158.7 298.406 156.319 298.406C153.938 298.406 152.008 300.336 152.008 302.718C152.008 305.099 153.938 307.029 156.319 307.029Z" fill="white"/>
<path opacity="0.4" d="M156.319 289.065C158.7 289.065 160.63 287.135 160.63 284.754C160.63 282.373 158.7 280.442 156.319 280.442C153.938 280.442 152.008 282.373 152.008 284.754C152.008 287.135 153.938 289.065 156.319 289.065Z" fill="white"/>
<path opacity="0.4" d="M156.319 271.101C158.7 271.101 160.63 269.171 160.63 266.79C160.63 264.409 158.7 262.479 156.319 262.479C153.938 262.479 152.008 264.409 152.008 266.79C152.008 269.171 153.938 271.101 156.319 271.101Z" fill="white"/>
<path opacity="0.4" d="M156.319 253.137C158.7 253.137 160.63 251.207 160.63 248.826C160.63 246.445 158.7 244.515 156.319 244.515C153.938 244.515 152.008 246.445 152.008 248.826C152.008 251.207 153.938 253.137 156.319 253.137Z" fill="white"/>
</g>
<path d="M495.858 63.3203H209.453C208.046 63.3217 206.697 63.8812 205.703 64.8758C204.708 65.8705 204.149 67.2191 204.147 68.6258V313.531C204.149 314.938 204.708 316.287 205.703 317.281C206.697 318.276 208.046 318.835 209.453 318.837H495.858C497.265 318.835 498.613 318.276 499.608 317.281C500.603 316.287 501.162 314.938 501.163 313.531V68.6258C501.162 67.2191 500.603 65.8705 499.608 64.8758C498.613 63.8812 497.265 63.3217 495.858 63.3203ZM499.037 313.531C499.037 314.375 498.702 315.185 498.106 315.782C497.51 316.38 496.702 316.717 495.858 316.72H209.453C208.608 316.719 207.799 316.382 207.203 315.784C206.606 315.186 206.272 314.376 206.273 313.531V68.6258C206.272 67.7813 206.606 66.9708 207.203 66.3727C207.799 65.7746 208.608 65.4379 209.453 65.4365H495.858C496.702 65.4395 497.51 65.7768 498.106 66.3746C498.702 66.9723 499.037 67.7818 499.037 68.6258V313.531Z" fill="#4F4F4F"/>
<path d="M275.562 275.291C275.562 275.668 275.552 276.046 275.532 276.414C275.244 281.941 272.845 287.146 268.83 290.956C264.816 294.766 259.492 296.89 253.958 296.89C248.423 296.89 243.1 294.766 239.085 290.956C235.071 287.146 232.672 281.941 232.383 276.414C232.363 276.046 232.354 275.668 232.354 275.291C232.352 272.453 232.909 269.642 233.994 267.019C235.079 264.396 236.67 262.013 238.676 260.005C240.683 257.998 243.065 256.405 245.687 255.319C248.309 254.232 251.12 253.673 253.958 253.673C256.796 253.673 259.607 254.232 262.229 255.319C264.851 256.405 267.233 257.998 269.239 260.005C271.246 262.013 272.837 264.396 273.922 267.019C275.006 269.642 275.564 272.453 275.562 275.291Z" fill="white"/>
<path d="M473.603 260.884H303.848C302.894 260.885 301.979 261.265 301.305 261.941C300.631 262.616 300.252 263.531 300.252 264.485C300.252 265.44 300.631 266.355 301.305 267.03C301.979 267.705 302.894 268.085 303.848 268.087H473.603C474.557 268.085 475.472 267.705 476.146 267.03C476.82 266.355 477.199 265.44 477.199 264.485C477.199 263.531 476.82 262.616 476.146 261.941C475.472 261.265 474.557 260.885 473.603 260.884V260.884Z" fill="#4F4F4F"/>
<path d="M376.892 282.494H303.848C302.894 282.494 301.979 282.873 301.305 283.548C300.63 284.222 300.251 285.137 300.251 286.091C300.251 287.045 300.63 287.959 301.305 288.634C301.979 289.308 302.894 289.687 303.848 289.687H376.892C377.846 289.687 378.761 289.308 379.436 288.634C380.11 287.959 380.489 287.045 380.489 286.091C380.489 285.137 380.11 284.222 379.436 283.548C378.761 282.873 377.846 282.494 376.892 282.494Z" fill="white"/>
<path d="M563.902 235.45H277.498C275.553 235.448 273.688 234.674 272.313 233.298C270.937 231.923 270.164 230.058 270.162 228.113V102.425C270.164 100.48 270.937 98.6147 272.313 97.2393C273.688 95.8639 275.553 95.0902 277.498 95.0879H563.902C565.847 95.0902 567.711 95.8639 569.087 97.2393C570.462 98.6147 571.236 100.48 571.238 102.425V228.113C571.236 230.058 570.462 231.923 569.087 233.298C567.712 234.674 565.847 235.448 563.902 235.45V235.45ZM277.498 97.6624C276.235 97.6638 275.025 98.1661 274.132 99.0589C273.24 99.9516 272.737 101.162 272.736 102.425V228.113C272.737 229.375 273.24 230.586 274.132 231.479C275.025 232.372 276.235 232.874 277.498 232.875H563.902C565.164 232.874 566.375 232.372 567.267 231.479C568.16 230.586 568.662 229.375 568.663 228.113V102.425C568.662 101.162 568.16 99.9516 567.267 99.0589C566.374 98.1661 565.164 97.6638 563.902 97.6624H277.498Z" fill="white"/>
<path d="M335.824 140.931C334.869 140.931 333.953 141.31 333.278 141.985C332.603 142.661 332.223 143.576 332.223 144.531C332.223 145.486 332.603 146.402 333.278 147.078C333.953 147.753 334.869 148.132 335.824 148.132H505.575C506.53 148.132 507.446 147.753 508.121 147.078C508.796 146.402 509.176 145.486 509.176 144.531C509.176 143.576 508.796 142.661 508.121 141.985C507.446 141.31 506.53 140.931 505.575 140.931H335.824Z" fill="white"/>
<path d="M335.824 161.795C334.869 161.795 333.953 162.174 333.278 162.85C332.603 163.525 332.223 164.441 332.223 165.396C332.223 166.351 332.603 167.267 333.278 167.942C333.953 168.617 334.869 168.996 335.824 168.996H505.575C506.529 168.995 507.443 168.615 508.118 167.94C508.792 167.265 509.17 166.35 509.17 165.396C509.17 164.442 508.792 163.527 508.118 162.852C507.443 162.176 506.529 161.796 505.575 161.795H335.824Z" fill="white"/>
<path d="M335.824 182.406C334.869 182.406 333.953 182.786 333.278 183.461C332.603 184.136 332.223 185.052 332.223 186.007C332.223 186.962 332.603 187.878 333.278 188.553C333.953 189.228 334.869 189.608 335.824 189.608H408.868C409.822 189.606 410.737 189.226 411.411 188.551C412.085 187.876 412.464 186.961 412.464 186.007C412.464 185.053 412.085 184.138 411.411 183.463C410.737 182.788 409.822 182.408 408.868 182.406H335.824Z" fill="white"/>
<path d="M611.122 288.701L582.357 248.104L591.669 250.044C591.835 250.078 592.005 250.08 592.172 250.048C592.338 250.017 592.496 249.953 592.638 249.86C592.779 249.768 592.901 249.648 592.996 249.508C593.091 249.368 593.158 249.211 593.193 249.045C593.227 248.88 593.229 248.709 593.197 248.543C593.166 248.377 593.102 248.218 593.009 248.077C592.916 247.935 592.797 247.813 592.657 247.718C592.517 247.623 592.36 247.556 592.194 247.522L578.317 244.633L576.444 258.681C576.421 258.849 576.432 259.02 576.475 259.184C576.518 259.348 576.593 259.502 576.696 259.636C576.799 259.771 576.927 259.884 577.074 259.969C577.221 260.055 577.382 260.11 577.55 260.132C577.719 260.155 577.889 260.144 578.053 260.1C578.217 260.056 578.37 259.981 578.505 259.877C578.639 259.774 578.752 259.645 578.837 259.499C578.921 259.352 578.976 259.19 578.998 259.022L580.254 249.588L609.022 290.189C609.12 290.327 609.244 290.445 609.387 290.535C609.53 290.625 609.689 290.686 609.856 290.714C610.023 290.742 610.193 290.738 610.358 290.7C610.523 290.663 610.679 290.593 610.816 290.495C610.954 290.398 611.072 290.274 611.162 290.131C611.252 289.987 611.313 289.828 611.341 289.661C611.369 289.495 611.365 289.324 611.327 289.159C611.29 288.995 611.22 288.839 611.122 288.701V288.701Z" fill="white"/>
<path d="M454.887 406.859H250.424C249.42 406.858 248.457 406.458 247.747 405.748C247.038 405.039 246.638 404.076 246.637 403.072V352.354C246.638 351.35 247.038 350.388 247.747 349.678C248.457 348.968 249.42 348.569 250.424 348.567H454.887C455.891 348.569 456.853 348.968 457.563 349.678C458.273 350.388 458.672 351.35 458.673 352.354V403.072C458.672 404.076 458.273 405.039 457.563 405.748C456.853 406.458 455.891 406.858 454.887 406.859V406.859ZM250.424 350.082C249.821 350.083 249.244 350.322 248.818 350.748C248.392 351.174 248.152 351.751 248.152 352.354V403.072C248.152 403.675 248.392 404.252 248.818 404.678C249.244 405.104 249.821 405.344 250.424 405.344H454.887C455.489 405.344 456.067 405.104 456.493 404.678C456.919 404.252 457.158 403.675 457.159 403.072V352.354C457.158 351.751 456.919 351.174 456.493 350.748C456.067 350.322 455.489 350.083 454.887 350.082H250.424Z" fill="#4F4F4F"/>
<path d="M282.193 391.191C290.711 391.191 297.617 384.286 297.617 375.767C297.617 367.249 290.711 360.344 282.193 360.344C273.675 360.344 266.769 367.249 266.769 375.767C266.769 384.286 273.675 391.191 282.193 391.191Z" fill="white"/>
<path d="M317.814 365.485C317.476 365.485 317.141 365.551 316.829 365.68C316.516 365.809 316.233 365.998 315.993 366.237C315.754 366.475 315.564 366.759 315.435 367.071C315.305 367.383 315.239 367.718 315.239 368.056C315.239 368.394 315.305 368.729 315.435 369.041C315.564 369.353 315.754 369.637 315.993 369.875C316.233 370.114 316.516 370.303 316.829 370.432C317.141 370.561 317.476 370.627 317.814 370.627H439C439.681 370.627 440.335 370.356 440.817 369.874C441.299 369.392 441.57 368.738 441.57 368.056C441.57 367.374 441.299 366.72 440.817 366.238C440.335 365.756 439.681 365.485 439 365.485H317.814Z" fill="white"/>
<path d="M317.814 380.909C317.476 380.909 317.141 380.975 316.829 381.104C316.516 381.232 316.233 381.422 315.993 381.66C315.754 381.899 315.564 382.183 315.435 382.495C315.305 382.807 315.239 383.142 315.239 383.48C315.239 383.818 315.305 384.152 315.435 384.465C315.564 384.777 315.754 385.06 315.993 385.299C316.233 385.538 316.516 385.727 316.829 385.856C317.141 385.985 317.476 386.051 317.814 386.05H369.961C370.642 386.05 371.296 385.78 371.778 385.297C372.26 384.815 372.531 384.162 372.531 383.48C372.531 382.798 372.26 382.144 371.778 381.662C371.296 381.18 370.642 380.909 369.961 380.909H317.814Z" fill="white"/>
<path d="M724.658 226.16H815.531C816.535 226.161 817.497 226.561 818.207 227.27C818.917 227.98 819.316 228.943 819.317 229.947V324.587C819.316 325.591 818.917 326.553 818.207 327.263C817.497 327.973 816.535 328.372 815.531 328.373H724.658C723.654 328.372 722.692 327.973 721.982 327.263C721.272 326.553 720.873 325.591 720.872 324.587V229.947C720.873 228.943 721.272 227.98 721.982 227.27C722.692 226.561 723.654 226.161 724.658 226.16V226.16ZM815.531 326.859C816.133 326.858 816.711 326.618 817.137 326.193C817.563 325.767 817.802 325.189 817.803 324.587V229.947C817.802 229.344 817.563 228.767 817.137 228.341C816.711 227.915 816.133 227.675 815.531 227.675H724.658C724.056 227.675 723.478 227.915 723.053 228.341C722.627 228.767 722.387 229.344 722.386 229.947V324.587C722.387 325.189 722.627 325.767 723.053 326.193C723.478 326.618 724.056 326.858 724.658 326.859H815.531Z" fill="#4F4F4F"/>
<path d="M796.168 308.857C796.85 308.857 797.503 308.586 797.985 308.104C798.468 307.622 798.738 306.968 798.738 306.286C798.738 305.605 798.468 304.951 797.985 304.469C797.503 303.987 796.85 303.716 796.168 303.716H744.021C743.34 303.716 742.686 303.987 742.204 304.469C741.722 304.951 741.451 305.605 741.451 306.286C741.451 306.968 741.722 307.622 742.204 308.104C742.686 308.586 743.34 308.857 744.021 308.857H796.168Z" fill="white"/>
<path d="M796.168 293.711C796.506 293.712 796.841 293.646 797.153 293.517C797.465 293.388 797.749 293.199 797.989 292.96C798.228 292.721 798.418 292.438 798.547 292.126C798.677 291.814 798.743 291.479 798.743 291.141C798.743 290.803 798.677 290.468 798.547 290.156C798.418 289.844 798.228 289.56 797.989 289.322C797.749 289.083 797.465 288.894 797.153 288.765C796.841 288.636 796.506 288.57 796.168 288.57H744.021C743.683 288.57 743.349 288.636 743.036 288.765C742.724 288.894 742.44 289.083 742.201 289.322C741.961 289.56 741.772 289.844 741.642 290.156C741.513 290.468 741.446 290.803 741.446 291.141C741.446 291.479 741.513 291.814 741.642 292.126C741.772 292.438 741.961 292.721 742.201 292.96C742.44 293.199 742.724 293.388 743.036 293.517C743.349 293.646 743.683 293.712 744.021 293.711H796.168Z" fill="white"/>
<path d="M770.094 245.677C773.295 245.677 776.423 246.626 779.084 248.404C781.745 250.182 783.819 252.709 785.043 255.665C786.268 258.622 786.588 261.875 785.964 265.014C785.34 268.153 783.799 271.036 781.536 273.299C779.273 275.562 776.39 277.103 773.251 277.727C770.112 278.352 766.859 278.031 763.902 276.807C760.946 275.582 758.418 273.508 756.64 270.847C754.863 268.186 753.914 265.058 753.914 261.858C753.918 257.568 755.625 253.455 758.658 250.421C761.692 247.388 765.804 245.682 770.094 245.677Z" fill="white"/>
</svg>
