<svg width="464" height="347" viewBox="0 0 464 347" fill="none" xmlns="http://www.w3.org/2000/svg">
<path d="M216.97 318.714H252.363C252.363 322.419 250.891 325.973 248.271 328.593C245.651 331.213 242.097 332.685 238.392 332.685H230.941C227.235 332.685 223.682 331.213 221.062 328.593C218.442 325.973 216.97 322.419 216.97 318.714H216.97Z" fill="#4F4F4F"/>
<path d="M260.632 287.435V274.452C260.632 258.764 277.694 243.926 288.762 233.339C304.363 218.425 312.564 198.388 312.564 174.916C312.564 154.293 304.387 134.512 289.825 119.91C275.263 105.308 255.505 97.0752 234.882 97.0179C214.26 96.9605 194.457 105.083 179.814 119.604C165.171 134.125 156.883 153.86 156.768 174.482C156.768 174.627 156.768 174.771 156.768 174.916C156.768 197.549 165.321 218.944 180.571 233.339C191.579 243.731 208.7 258.602 208.7 274.452V287.435" fill="#3B7D5E"/>
<path d="M260.632 289.256C260.393 289.256 260.156 289.209 259.935 289.118C259.714 289.026 259.513 288.892 259.344 288.723C259.174 288.553 259.04 288.352 258.949 288.131C258.857 287.91 258.81 287.673 258.81 287.434V274.451C258.81 259.189 273.862 244.942 284.852 234.539C285.764 233.675 286.651 232.836 287.502 232.022C302.706 217.487 310.742 197.74 310.742 174.915C310.742 132.256 277.326 98.839 234.666 98.839C234.595 98.8387 234.523 98.8387 234.451 98.8387C214.376 98.8613 195.125 106.832 180.91 121.007C166.694 135.183 158.669 154.411 158.59 174.487V174.911C158.59 197.265 167.058 218.077 181.821 232.013C182.569 232.72 183.346 233.447 184.144 234.193C195.276 244.616 210.522 258.89 210.522 274.451V287.434C210.522 287.917 210.33 288.381 209.989 288.722C209.647 289.064 209.183 289.256 208.7 289.256C208.217 289.256 207.753 289.064 207.412 288.722C207.07 288.381 206.878 287.917 206.878 287.434V274.451C206.878 260.471 192.298 246.821 181.653 236.854C180.851 236.104 180.071 235.373 179.319 234.664C163.83 220.042 154.946 198.264 154.946 174.915V174.478C155.068 130.716 190.714 95.1941 234.446 95.1941C234.524 95.1941 234.594 95.1941 234.671 95.1944C245.155 95.1399 255.546 97.1648 265.242 101.152C274.939 105.139 283.749 111.009 291.162 118.423C298.575 125.837 304.444 134.647 308.431 144.343C312.417 154.04 314.441 164.431 314.386 174.915C314.386 198.759 305.961 219.417 290.021 234.656C289.166 235.474 288.274 236.318 287.357 237.186C276.848 247.134 262.455 260.758 262.455 274.451V287.434C262.455 287.673 262.407 287.91 262.316 288.131C262.224 288.352 262.09 288.553 261.921 288.723C261.752 288.892 261.551 289.026 261.33 289.118C261.109 289.209 260.872 289.256 260.632 289.256Z" fill="#4F4F4F"/>
<path d="M251.977 312.64H217.355C216.55 312.64 215.777 312.32 215.208 311.75C214.638 311.181 214.318 310.408 214.318 309.603C214.318 308.797 214.638 308.025 215.208 307.455C215.777 306.885 216.55 306.565 217.355 306.565H251.977C252.782 306.565 253.555 306.885 254.124 307.455C254.694 308.025 255.014 308.797 255.014 309.603C255.014 310.408 254.694 311.181 254.124 311.75C253.555 312.32 252.782 312.64 251.977 312.64V312.64Z" fill="#3B7D5E"/>
<path d="M154.12 103.324C153.386 103.325 152.677 103.058 152.124 102.575L126.042 79.8073C125.741 79.5452 125.495 79.2263 125.317 78.8689C125.14 78.5115 125.034 78.1226 125.007 77.7245C124.98 77.3263 125.031 76.9267 125.159 76.5485C125.286 76.1703 125.487 75.8209 125.749 75.5203C126.012 75.2196 126.331 74.9737 126.688 74.7964C127.046 74.6192 127.435 74.5142 127.833 74.4873C128.231 74.4605 128.631 74.5124 129.009 74.6401C129.387 74.7678 129.736 74.9687 130.036 75.2314L156.119 97.9987C156.585 98.4053 156.915 98.9444 157.066 99.544C157.218 100.143 157.182 100.775 156.965 101.354C156.748 101.933 156.359 102.431 155.851 102.783C155.342 103.135 154.739 103.324 154.12 103.324H154.12Z" fill="#E6E6E6"/>
<path d="M310.884 103.324C310.266 103.324 309.662 103.136 309.154 102.784C308.646 102.432 308.257 101.933 308.04 101.354C307.822 100.775 307.787 100.144 307.938 99.5442C308.089 98.9446 308.42 98.4055 308.886 97.9989L334.968 75.2317C335.575 74.7028 336.367 74.4366 337.17 74.4914C337.973 74.5463 338.721 74.9177 339.251 75.5242C339.78 76.1306 340.047 76.9224 339.993 77.7256C339.939 78.5287 339.568 79.2776 338.962 79.8075L312.88 102.575C312.328 103.059 311.618 103.325 310.884 103.324V103.324Z" fill="#E6E6E6"/>
<path d="M260.632 301.859H208.7C207.895 301.859 207.122 301.539 206.553 300.97C205.983 300.4 205.663 299.628 205.663 298.822C205.663 298.017 205.983 297.244 206.553 296.675C207.122 296.105 207.895 295.785 208.7 295.785H260.632C261.438 295.785 262.21 296.105 262.78 296.675C263.349 297.244 263.669 298.017 263.669 298.822C263.669 299.628 263.349 300.4 262.78 300.97C262.21 301.539 261.438 301.859 260.632 301.859Z" fill="#3B7D5E"/>
<path d="M234.666 290.471C234.267 290.471 233.873 290.393 233.504 290.24C233.136 290.087 232.801 289.864 232.519 289.582C232.237 289.3 232.013 288.965 231.86 288.596C231.708 288.228 231.629 287.833 231.629 287.434V218.191C231.629 217.386 231.949 216.613 232.519 216.044C233.088 215.474 233.861 215.154 234.666 215.154C235.472 215.154 236.244 215.474 236.814 216.044C237.383 216.613 237.703 217.386 237.703 218.191V287.434C237.703 287.833 237.625 288.228 237.472 288.596C237.32 288.965 237.096 289.3 236.814 289.582C236.532 289.864 236.197 290.087 235.829 290.24C235.46 290.393 235.065 290.471 234.666 290.471V290.471Z" fill="white"/>
<path d="M234.666 221.229C224.853 221.229 212.805 212.351 212.297 211.974C211.977 211.736 211.707 211.437 211.502 211.094C211.298 210.752 211.163 210.373 211.105 209.978C211.047 209.583 211.067 209.181 211.165 208.795C211.262 208.408 211.435 208.044 211.673 207.724C211.911 207.404 212.21 207.134 212.552 206.929C212.894 206.725 213.274 206.59 213.668 206.532C214.063 206.474 214.465 206.494 214.852 206.592C215.239 206.689 215.602 206.862 215.922 207.1C218.941 209.34 228.196 215.155 234.666 215.155C241.137 215.155 250.391 209.34 253.411 207.099C253.731 206.861 254.095 206.688 254.482 206.591C254.869 206.494 255.271 206.473 255.665 206.531C256.06 206.589 256.439 206.725 256.782 206.929C257.124 207.134 257.423 207.404 257.661 207.724C257.899 208.044 258.071 208.408 258.169 208.795C258.266 209.182 258.286 209.584 258.228 209.978C258.17 210.373 258.035 210.752 257.83 211.095C257.625 211.437 257.355 211.736 257.035 211.974C256.527 212.351 244.479 221.229 234.666 221.229Z" fill="white"/>
<path d="M234.666 73.0064C233.861 73.0063 233.088 72.6863 232.519 72.1168C231.949 71.5472 231.629 70.7747 231.629 69.9692V18.0371C231.629 17.2316 231.949 16.4591 232.518 15.8896C233.088 15.32 233.861 15 234.666 15C235.472 15 236.244 15.32 236.814 15.8896C237.383 16.4591 237.703 17.2316 237.703 18.0371V69.9692C237.703 70.7747 237.383 71.5472 236.814 72.1168C236.244 72.6863 235.472 73.0063 234.666 73.0064V73.0064Z" fill="#E6E6E6"/>
</svg>
