<svg width="844" height="641" viewBox="0 0 844 641" fill="none" xmlns="http://www.w3.org/2000/svg">
<g clip-path="url(#clip0)">
<path d="M424.443 0H48.125C35.3658 0.0143667 23.1334 5.0893 14.1113 14.1114C5.08923 23.1335 0.0143349 35.366 0 48.1251V490.001C0.0143376 502.76 5.08925 514.993 14.1113 524.015C23.1334 533.037 35.3659 538.112 48.125 538.126H424.443C437.203 538.112 449.435 533.037 458.457 524.015C467.479 514.993 472.554 502.76 472.568 490.001V48.1251C472.554 35.366 467.479 23.1335 458.457 14.1114C449.435 5.0893 437.203 0.0143667 424.443 0V0Z" fill="#F2F2F2"/>
<path d="M424.444 13.854H48.125C39.0389 13.8642 30.3279 17.4781 23.903 23.903C17.4782 30.3278 13.8642 39.0388 13.854 48.1249V490.001C13.8642 499.087 17.4782 507.798 23.903 514.223C30.3279 520.648 39.0389 524.261 48.125 524.272H424.444C433.53 524.261 442.241 520.647 448.666 514.223C455.09 507.798 458.704 499.087 458.714 490.001V48.1249C458.704 39.0389 455.09 30.3279 448.666 23.9031C442.241 17.4783 433.53 13.8643 424.444 13.854V13.854Z" fill="white"/>
<path d="M367.807 142.34H177.506C175.38 142.34 173.342 141.495 171.839 139.992C170.336 138.49 169.492 136.451 169.492 134.326C169.492 132.2 170.336 130.162 171.839 128.659C173.342 127.156 175.38 126.312 177.506 126.312H367.807C368.86 126.312 369.902 126.519 370.874 126.922C371.847 127.324 372.73 127.915 373.474 128.659C374.219 129.403 374.809 130.286 375.212 131.259C375.614 132.231 375.822 133.273 375.822 134.326C375.822 135.378 375.614 136.42 375.212 137.393C374.809 138.365 374.219 139.248 373.474 139.992C372.73 140.737 371.847 141.327 370.874 141.73C369.902 142.132 368.86 142.34 367.807 142.34V142.34Z" fill="#F2F2F2"/>
<path d="M400.866 169.388H177.506C175.382 169.385 173.346 168.54 171.845 167.037C170.344 165.534 169.501 163.497 169.501 161.374C169.501 159.25 170.344 157.212 171.845 155.71C173.346 154.207 175.382 153.362 177.506 153.359H400.866C402.99 153.362 405.026 154.207 406.527 155.71C408.028 157.212 408.871 159.25 408.871 161.374C408.871 163.497 408.028 165.534 406.527 167.037C405.026 168.54 402.99 169.385 400.866 169.388V169.388Z" fill="#F2F2F2"/>
<path d="M367.807 263.553H177.506C175.38 263.553 173.342 262.709 171.839 261.206C170.336 259.703 169.492 257.665 169.492 255.539C169.492 253.414 170.336 251.375 171.839 249.872C173.342 248.369 175.38 247.525 177.506 247.525H367.807C368.86 247.525 369.902 247.732 370.874 248.135C371.847 248.538 372.73 249.128 373.474 249.872C374.219 250.616 374.809 251.5 375.212 252.472C375.614 253.444 375.822 254.487 375.822 255.539C375.822 256.591 375.614 257.634 375.212 258.606C374.809 259.578 374.219 260.462 373.474 261.206C372.73 261.95 371.847 262.54 370.874 262.943C369.902 263.346 368.86 263.553 367.807 263.553V263.553Z" fill="#F2F2F2"/>
<path d="M400.866 290.601H177.506C175.382 290.599 173.346 289.753 171.845 288.251C170.344 286.748 169.501 284.711 169.501 282.587C169.501 280.463 170.344 278.426 171.845 276.923C173.346 275.421 175.382 274.575 177.506 274.573H400.866C402.99 274.575 405.026 275.421 406.527 276.923C408.028 278.426 408.871 280.463 408.871 282.587C408.871 284.711 408.028 286.748 406.527 288.251C405.026 289.753 402.99 290.599 400.866 290.601V290.601Z" fill="#F2F2F2"/>
<path d="M367.807 384.767H177.506C175.38 384.767 173.342 383.922 171.839 382.419C170.336 380.916 169.492 378.878 169.492 376.752C169.492 374.627 170.336 372.589 171.839 371.086C173.342 369.583 175.38 368.738 177.506 368.738H367.807C368.861 368.737 369.904 368.944 370.877 369.346C371.85 369.748 372.735 370.338 373.48 371.082C374.225 371.827 374.816 372.711 375.22 373.683C375.623 374.656 375.831 375.699 375.831 376.752C375.831 377.806 375.623 378.848 375.22 379.821C374.816 380.794 374.225 381.678 373.48 382.422C372.735 383.167 371.85 383.757 370.877 384.159C369.904 384.561 368.861 384.768 367.807 384.767V384.767Z" fill="#F2F2F2"/>
<path d="M400.866 411.814H177.506C175.382 411.812 173.346 410.967 171.845 409.464C170.344 407.961 169.501 405.924 169.501 403.8C169.501 401.676 170.344 399.639 171.845 398.137C173.346 396.634 175.382 395.789 177.506 395.786H400.866C402.99 395.789 405.026 396.634 406.527 398.137C408.028 399.639 408.871 401.676 408.871 403.8C408.871 405.924 408.028 407.961 406.527 409.464C405.026 410.967 402.99 411.812 400.866 411.814Z" fill="#F2F2F2"/>
<path d="M134.877 181.666H67.5312C66.5124 181.665 65.5356 181.26 64.8152 180.539C64.0948 179.819 63.6896 178.842 63.6885 177.823V117.876C63.6896 116.857 64.0948 115.88 64.8152 115.16C65.5356 114.44 66.5124 114.034 67.5312 114.033H134.877C135.896 114.034 136.873 114.44 137.593 115.16C138.314 115.88 138.719 116.857 138.72 117.876V177.823C138.719 178.842 138.314 179.819 137.593 180.539C136.873 181.26 135.896 181.665 134.877 181.666Z" fill="#E6E6E6"/>
<path d="M134.877 302.879H67.5312C66.5124 302.878 65.5356 302.473 64.8152 301.753C64.0948 301.032 63.6896 300.055 63.6885 299.037V239.089C63.6896 238.071 64.0948 237.094 64.8152 236.373C65.5356 235.653 66.5124 235.248 67.5312 235.247H134.877C135.896 235.248 136.873 235.653 137.593 236.373C138.314 237.094 138.719 238.071 138.72 239.089V299.037C138.719 300.055 138.314 301.032 137.593 301.753C136.873 302.473 135.896 302.878 134.877 302.879V302.879Z" fill="#E6E6E6"/>
<path d="M134.877 424.093H67.5312C66.5124 424.092 65.5356 423.686 64.8152 422.966C64.0948 422.246 63.6896 421.269 63.6885 420.25V360.303C63.6896 359.284 64.0948 358.307 64.8152 357.587C65.5356 356.866 66.5124 356.461 67.5312 356.46H134.877C135.896 356.461 136.873 356.866 137.593 357.587C138.314 358.307 138.719 359.284 138.72 360.303V420.25C138.719 421.269 138.314 422.246 137.593 422.966C136.873 423.686 135.896 424.092 134.877 424.093Z" fill="#E6E6E6"/>
<path d="M755.955 417.91L758.94 391.802L773.909 260.894L776.895 234.785C778.33 222.107 774.678 209.377 766.739 199.389C758.8 189.4 747.224 182.968 734.549 181.505L394.886 142.665C382.208 141.23 369.478 144.882 359.49 152.821C349.501 160.759 343.069 172.336 341.606 185.011L341.598 185.078L320.673 368.068L320.666 368.136C319.23 380.814 322.883 393.544 330.821 403.533C338.76 413.521 350.337 419.953 363.012 421.417L702.674 460.256C715.352 461.692 728.082 458.039 738.071 450.101C748.059 442.162 754.491 430.585 755.955 417.91V417.91Z" fill="#E6E6E6"/>
<path d="M742.19 416.337L745.727 385.413L759.594 264.135L763.13 233.212C764.153 224.183 761.552 215.118 755.898 208.005C750.245 200.892 742.001 196.312 732.975 195.269L393.313 156.429C384.284 155.407 375.219 158.008 368.106 163.661C360.993 169.315 356.412 177.559 355.37 186.585L355.362 186.652L334.438 369.643L334.43 369.711C333.408 378.739 336.009 387.804 341.662 394.917C347.316 402.03 355.56 406.61 364.586 407.653L704.248 446.492C713.276 447.515 722.341 444.914 729.455 439.26C736.568 433.607 741.148 425.363 742.19 416.337V416.337Z" fill="white"/>
<path d="M686.593 250.416L497.524 228.797C496.477 228.678 495.464 228.354 494.543 227.844C493.622 227.334 492.81 226.647 492.155 225.823C491.499 224.999 491.012 224.054 490.722 223.041C490.432 222.029 490.344 220.969 490.464 219.923C490.583 218.877 490.908 217.864 491.419 216.944C491.93 216.023 492.618 215.212 493.443 214.557C494.268 213.902 495.213 213.416 496.226 213.127C497.239 212.838 498.298 212.751 499.345 212.872L688.414 234.492C690.524 234.735 692.451 235.807 693.772 237.47C695.093 239.134 695.699 241.253 695.458 243.364C695.217 245.474 694.147 247.402 692.485 248.725C690.823 250.047 688.704 250.656 686.593 250.416Z" fill="#E6E6E6"/>
<path d="M716.365 281.045L494.451 255.669C493.404 255.55 492.392 255.227 491.471 254.716C490.549 254.206 489.738 253.519 489.082 252.695C488.427 251.871 487.94 250.926 487.65 249.914C487.36 248.901 487.272 247.842 487.391 246.796C487.511 245.749 487.836 244.737 488.347 243.816C488.858 242.895 489.546 242.085 490.37 241.43C491.195 240.775 492.141 240.289 493.153 240C494.166 239.711 495.226 239.624 496.272 239.745L718.186 265.12C719.231 265.24 720.243 265.564 721.163 266.075C722.083 266.585 722.894 267.272 723.549 268.096C724.204 268.92 724.69 269.865 724.98 270.876C725.269 271.888 725.357 272.947 725.237 273.993C725.118 275.038 724.793 276.05 724.283 276.97C723.772 277.891 723.085 278.701 722.261 279.356C721.438 280.011 720.493 280.497 719.481 280.787C718.469 281.077 717.41 281.164 716.365 281.045Z" fill="#E6E6E6"/>
<path d="M710.177 334.641L383.008 297.23C380.898 296.986 378.97 295.915 377.65 294.252C376.329 292.588 375.723 290.468 375.964 288.358C376.205 286.248 377.275 284.32 378.937 282.997C380.599 281.675 382.718 281.066 384.829 281.305L711.998 318.717C713.045 318.835 714.057 319.159 714.979 319.669C715.9 320.18 716.711 320.866 717.367 321.69C718.023 322.515 718.509 323.46 718.799 324.472C719.089 325.484 719.177 326.544 719.058 327.59C718.938 328.636 718.613 329.649 718.102 330.57C717.591 331.49 716.903 332.301 716.079 332.956C715.254 333.611 714.308 334.097 713.296 334.386C712.283 334.675 711.224 334.762 710.177 334.641H710.177Z" fill="#E6E6E6"/>
<path d="M708.156 361.634L379.935 324.102C377.825 323.859 375.898 322.788 374.577 321.124C373.256 319.461 372.65 317.341 372.891 315.231C373.133 313.12 374.202 311.192 375.864 309.87C377.526 308.547 379.645 307.939 381.756 308.178L709.977 345.709C712.087 345.953 714.014 347.024 715.335 348.688C716.656 350.351 717.262 352.471 717.021 354.581C716.779 356.691 715.71 358.62 714.048 359.942C712.386 361.265 710.267 361.873 708.156 361.634V361.634Z" fill="#E6E6E6"/>
<path d="M704.156 387.298L376.987 349.886C375.94 349.768 374.927 349.444 374.006 348.934C373.085 348.424 372.273 347.737 371.617 346.913C370.962 346.089 370.475 345.143 370.185 344.131C369.895 343.119 369.807 342.059 369.927 341.013C370.046 339.967 370.371 338.954 370.882 338.033C371.393 337.113 372.081 336.302 372.906 335.647C373.73 334.992 374.676 334.506 375.689 334.217C376.702 333.928 377.761 333.841 378.807 333.962L705.977 371.373C708.087 371.617 710.014 372.688 711.335 374.351C712.656 376.015 713.262 378.135 713.021 380.245C712.779 382.355 711.71 384.284 710.048 385.606C708.386 386.928 706.267 387.537 704.156 387.298V387.298Z" fill="#E6E6E6"/>
<path d="M702.135 414.291L373.914 376.759C371.804 376.516 369.877 375.445 368.556 373.781C367.235 372.117 366.629 369.998 366.87 367.887C367.111 365.777 368.181 363.849 369.843 362.526C371.505 361.204 373.624 360.596 375.735 360.835L703.956 398.366C705.002 398.485 706.015 398.808 706.936 399.319C707.857 399.829 708.669 400.516 709.325 401.34C709.98 402.164 710.467 403.109 710.757 404.121C711.047 405.134 711.135 406.193 711.015 407.24C710.896 408.286 710.571 409.299 710.06 410.219C709.549 411.14 708.861 411.951 708.036 412.606C707.212 413.261 706.266 413.746 705.253 414.036C704.241 414.325 703.181 414.411 702.135 414.291V414.291Z" fill="#E6E6E6"/>
<path d="M450.703 263.025L383.793 255.374C382.781 255.257 381.857 254.744 381.223 253.946C380.589 253.149 380.297 252.132 380.412 251.12L387.222 191.561C387.339 190.548 387.853 189.624 388.65 188.99C389.448 188.356 390.464 188.065 391.477 188.179L458.387 195.83C459.399 195.947 460.323 196.461 460.957 197.258C461.591 198.056 461.883 199.072 461.768 200.085L454.958 259.644C454.841 260.656 454.327 261.58 453.53 262.214C452.732 262.848 451.716 263.14 450.703 263.025V263.025Z" fill="#3B7D5E"/>
</g>
<defs>
<clipPath id="clip0">
<rect width="843.579" height="640.517" fill="white"/>
</clipPath>
</defs>
</svg>
