<svg width="1009" height="608" viewBox="0 0 1009 608" fill="none" xmlns="http://www.w3.org/2000/svg">
<path d="M942.047 451.601C942.066 455.134 940.68 458.529 938.195 461.04C935.71 463.551 932.33 464.972 928.797 464.99H345.819C344.07 464.981 342.34 464.628 340.727 463.95C339.115 463.272 337.651 462.283 336.421 461.04C335.191 459.797 334.217 458.323 333.556 456.704C332.895 455.084 332.56 453.351 332.569 451.601V53.3892C332.55 49.8567 333.936 46.4614 336.421 43.9505C338.906 41.4395 342.286 40.0185 345.819 40H928.797C930.546 40.0091 932.276 40.3626 933.889 41.0404C935.501 41.7182 936.965 42.7069 938.195 43.9502C939.425 45.1935 940.399 46.6669 941.06 48.2864C941.721 49.9059 942.056 51.6397 942.047 53.3889V53.3892V451.601Z" fill="#E6E6E6"/>
<path d="M935.17 445.081C935.17 448.514 933.806 451.807 931.378 454.235C928.95 456.663 925.658 458.027 922.224 458.027H352.792C349.358 458.027 346.065 456.663 343.637 454.235C341.209 451.807 339.845 448.514 339.845 445.081V60.0929C339.845 56.6593 341.209 53.3663 343.637 50.9384C346.065 48.5105 349.358 47.1465 352.792 47.1465H922.25C925.679 47.1534 928.965 48.5204 931.388 50.9476C933.81 53.3748 935.17 56.6638 935.17 60.0929V445.081Z" fill="white"/>
<path d="M370.279 63.8613H905.344C907.382 63.8613 909.337 64.6709 910.778 66.1121C912.219 67.5532 913.029 69.5078 913.029 71.5458V432.134C913.029 434.172 912.219 436.127 910.778 437.568C909.337 439.009 907.382 439.819 905.344 439.819H370.279C368.241 439.819 366.287 439.009 364.845 437.568C363.404 436.127 362.595 434.172 362.595 432.134V71.5458C362.595 69.5078 363.404 67.5532 364.845 66.1121C366.287 64.6709 368.241 63.8613 370.279 63.8613V63.8613Z" fill="#E6E6E6"/>
<path d="M377.052 72.5098H897.99C900.028 72.5098 901.982 73.3194 903.423 74.7605C904.865 76.2016 905.674 78.1562 905.674 80.1942V421.541C905.674 423.579 904.865 425.534 903.423 426.975C901.982 428.416 900.028 429.226 897.99 429.226H377.052C375.014 429.226 373.059 428.416 371.618 426.975C370.177 425.534 369.368 423.579 369.368 421.541V80.1942C369.368 78.1562 370.177 76.2016 371.618 74.7605C373.059 73.3194 375.014 72.5098 377.052 72.5098V72.5098Z" fill="white"/>
<path d="M744.87 309.636C742.819 309.634 740.792 309.203 738.919 308.368C738.483 308.175 738.068 307.938 737.679 307.663L699.819 281.014C697.899 279.662 696.332 277.869 695.25 275.785C694.168 273.701 693.603 271.387 693.603 269.039V232.695C693.603 230.347 694.168 228.033 695.25 225.949C696.332 223.865 697.899 222.072 699.819 220.72L737.679 194.071C738.068 193.795 738.483 193.559 738.919 193.366C741.149 192.374 743.592 191.956 746.025 192.148C748.458 192.341 750.804 193.138 752.851 194.468C754.897 195.797 756.579 197.618 757.743 199.763C758.907 201.908 759.517 204.309 759.517 206.75V294.984C759.517 298.869 757.974 302.594 755.227 305.341C752.48 308.088 748.754 309.631 744.87 309.631L744.87 309.636Z" fill="#3F3D56"/>
<path d="M660.14 316.782H554.548C533.005 316.764 515.547 302.839 515.525 285.656V216.079C515.547 198.896 533.005 184.971 554.548 184.953H660.415C681.805 184.973 699.138 198.799 699.163 215.86V285.656C699.141 302.839 681.683 316.764 660.14 316.782Z" fill="#3F3D56"/>
<path d="M848.235 407.275C865.579 407.275 879.639 393.215 879.639 375.871C879.639 358.527 865.579 344.467 848.235 344.467C830.891 344.467 816.831 358.527 816.831 375.871C816.831 393.215 830.891 407.275 848.235 407.275Z" fill="#E6E6E6"/>
<path d="M864.547 375.308L839.514 360.856C839.415 360.799 839.303 360.769 839.189 360.769C839.075 360.769 838.963 360.799 838.864 360.856C838.765 360.913 838.683 360.995 838.626 361.094C838.569 361.192 838.539 361.304 838.539 361.419V390.324C838.539 390.438 838.569 390.55 838.626 390.649C838.683 390.747 838.765 390.829 838.864 390.887C838.963 390.944 839.075 390.974 839.189 390.974C839.303 390.974 839.415 390.944 839.514 390.887L864.547 376.434C864.645 376.377 864.727 376.295 864.784 376.196C864.842 376.097 864.872 375.985 864.872 375.871C864.872 375.757 864.842 375.645 864.784 375.546C864.727 375.447 864.645 375.365 864.547 375.308L839.514 360.856C839.415 360.799 839.303 360.769 839.189 360.769C839.075 360.769 838.963 360.799 838.864 360.856C838.765 360.913 838.683 360.995 838.626 361.094C838.569 361.192 838.539 361.304 838.539 361.419V390.324C838.539 390.438 838.569 390.55 838.626 390.649C838.683 390.747 838.765 390.829 838.864 390.887C838.963 390.944 839.075 390.974 839.189 390.974C839.303 390.974 839.415 390.944 839.514 390.887L864.547 376.434C864.645 376.377 864.727 376.295 864.784 376.196C864.842 376.097 864.872 375.985 864.872 375.871C864.872 375.757 864.842 375.645 864.784 375.546C864.727 375.447 864.645 375.365 864.547 375.308V375.308Z" fill="white"/>
<path d="M807.46 499.358C807.479 502.891 806.093 506.286 803.609 508.797C801.124 511.308 797.743 512.729 794.211 512.747H211.232C209.483 512.738 207.753 512.385 206.14 511.707C204.528 511.029 203.065 510.04 201.834 508.797C200.604 507.554 199.63 506.08 198.969 504.461C198.308 502.841 197.973 501.107 197.982 499.358V101.146C197.964 97.6135 199.349 94.2183 201.834 91.7073C204.319 89.1963 207.699 87.7753 211.232 87.7568H794.21C795.959 87.7659 797.69 88.1195 799.302 88.7972C800.915 89.475 802.378 90.4638 803.608 91.707C804.839 92.9503 805.812 94.4238 806.473 96.0433C807.134 97.6627 807.47 99.3966 807.46 101.146V101.146V499.358Z" fill="#E6E6E6"/>
<path d="M800.584 492.837C800.584 496.271 799.22 499.564 796.792 501.992C794.364 504.42 791.071 505.784 787.637 505.784H218.205C214.771 505.784 211.478 504.42 209.05 501.992C206.622 499.564 205.258 496.271 205.258 492.837V107.85C205.258 104.416 206.622 101.123 209.05 98.6952C211.478 96.2673 214.771 94.9033 218.205 94.9033H787.663C791.092 94.9102 794.379 96.2772 796.801 98.7044C799.223 101.132 800.584 104.421 800.584 107.85V492.837Z" fill="white"/>
<path d="M235.692 111.618H770.757C772.795 111.618 774.75 112.428 776.191 113.869C777.632 115.31 778.442 117.265 778.442 119.303V479.891C778.442 481.929 777.632 483.884 776.191 485.325C774.75 486.766 772.795 487.576 770.757 487.576H235.692C233.654 487.576 231.7 486.766 230.259 485.325C228.818 483.884 228.008 481.929 228.008 479.891V119.303C228.008 117.265 228.818 115.31 230.259 113.869C231.7 112.428 233.654 111.618 235.692 111.618Z" fill="#E6E6E6"/>
<path d="M242.465 120.267H763.403C765.441 120.267 767.395 121.076 768.837 122.517C770.278 123.958 771.087 125.913 771.087 127.951V469.298C771.087 471.336 770.278 473.291 768.837 474.732C767.395 476.173 765.441 476.982 763.403 476.982H242.465C240.427 476.982 238.472 476.173 237.031 474.732C235.59 473.291 234.781 471.336 234.781 469.298V127.951C234.781 125.913 235.59 123.958 237.031 122.517C238.472 121.076 240.427 120.267 242.465 120.267V120.267Z" fill="white"/>
<path d="M610.283 357.393C608.232 357.391 606.205 356.959 604.332 356.125C603.897 355.931 603.481 355.695 603.092 355.42L565.232 328.77C563.312 327.419 561.745 325.625 560.663 323.541C559.582 321.458 559.017 319.144 559.016 316.796V280.451C559.017 278.103 559.582 275.79 560.663 273.706C561.745 271.622 563.312 269.829 565.232 268.477L603.092 241.827C603.481 241.552 603.896 241.316 604.332 241.123C606.562 240.131 609.005 239.713 611.438 239.905C613.871 240.097 616.217 240.895 618.264 242.225C620.31 243.554 621.992 245.374 623.156 247.519C624.321 249.664 624.93 252.066 624.93 254.507V342.741C624.93 346.625 623.387 350.351 620.64 353.098C617.893 355.845 614.168 357.388 610.283 357.388L610.283 357.393Z" fill="#3F3D56"/>
<path d="M525.553 364.539H419.961C398.418 364.521 380.96 350.596 380.938 333.413V263.836C380.96 246.653 398.418 232.728 419.961 232.71H525.829C547.218 232.73 564.551 246.556 564.576 263.617V333.413C564.554 350.596 547.096 364.521 525.553 364.539Z" fill="#3F3D56"/>
<path d="M713.649 455.032C730.993 455.032 745.053 440.972 745.053 423.628C745.053 406.284 730.993 392.224 713.649 392.224C696.304 392.224 682.244 406.284 682.244 423.628C682.244 440.972 696.304 455.032 713.649 455.032Z" fill="#E6E6E6"/>
<path d="M729.96 423.065L704.927 408.613C704.828 408.555 704.716 408.525 704.602 408.525C704.488 408.525 704.376 408.555 704.277 408.613C704.178 408.67 704.096 408.752 704.039 408.85C703.982 408.949 703.952 409.061 703.952 409.175V438.08C703.952 438.195 703.982 438.307 704.039 438.405C704.096 438.504 704.178 438.586 704.277 438.643C704.376 438.7 704.488 438.73 704.602 438.73C704.716 438.73 704.828 438.7 704.927 438.643L729.96 424.191C730.059 424.134 730.141 424.052 730.198 423.953C730.255 423.854 730.285 423.742 730.285 423.628C730.285 423.514 730.255 423.402 730.198 423.303C730.141 423.204 730.059 423.122 729.96 423.065L704.927 408.613C704.828 408.555 704.716 408.525 704.602 408.525C704.488 408.525 704.376 408.555 704.277 408.613C704.178 408.67 704.096 408.752 704.039 408.85C703.982 408.949 703.952 409.061 703.952 409.175V438.08C703.952 438.195 703.982 438.307 704.039 438.405C704.096 438.504 704.178 438.586 704.277 438.643C704.376 438.7 704.488 438.73 704.602 438.73C704.716 438.73 704.828 438.7 704.927 438.643L729.96 424.191C730.059 424.134 730.141 424.052 730.198 423.953C730.255 423.854 730.285 423.742 730.285 423.628C730.285 423.514 730.255 423.402 730.198 423.303C730.141 423.204 730.059 423.122 729.96 423.065Z" fill="white"/>
<path d="M675.479 554.061C675.497 557.594 674.112 560.989 671.627 563.5C669.142 566.011 665.761 567.432 662.229 567.45H79.2505C77.5013 567.441 75.7711 567.088 74.1586 566.41C72.546 565.732 71.0828 564.743 69.8524 563.5C68.622 562.257 67.6485 560.783 66.9875 559.164C66.3266 557.544 65.9911 555.811 66.0002 554.061V155.849C65.9817 152.317 67.3673 148.921 69.8521 146.41C72.337 143.899 75.7175 142.478 79.2501 142.46H662.228C663.978 142.469 665.708 142.823 667.32 143.5C668.933 144.178 670.396 145.167 671.626 146.41C672.857 147.653 673.83 149.127 674.491 150.746C675.152 152.366 675.488 154.1 675.479 155.849V155.849V554.061Z" fill="#E6E6E6"/>
<path d="M668.602 547.54C668.602 550.974 667.238 554.267 664.81 556.695C662.382 559.123 659.089 560.487 655.655 560.487H86.2229C82.7893 560.487 79.4963 559.123 77.0684 556.695C74.6405 554.267 73.2765 550.974 73.2765 547.54V162.553C73.2765 159.119 74.6405 155.826 77.0684 153.398C79.4963 150.97 82.7893 149.606 86.2229 149.606H655.681C659.11 149.613 662.397 150.98 664.819 153.408C667.241 155.835 668.602 159.124 668.602 162.553V547.54Z" fill="white"/>
<path d="M103.71 166.321H638.775C640.814 166.321 642.768 167.131 644.209 168.572C645.65 170.013 646.46 171.968 646.46 174.006V534.594C646.46 536.632 645.65 538.587 644.209 540.028C642.768 541.469 640.814 542.279 638.775 542.279H103.71C101.672 542.279 99.7178 541.469 98.2767 540.028C96.8356 538.587 96.026 536.632 96.026 534.594V174.006C96.026 171.968 96.8356 170.013 98.2767 168.572C99.7178 167.131 101.672 166.321 103.71 166.321V166.321Z" fill="#E6E6E6"/>
<path d="M110.483 174.969H631.421C632.43 174.969 633.429 175.168 634.362 175.554C635.294 175.94 636.141 176.506 636.855 177.219C637.568 177.933 638.134 178.78 638.521 179.712C638.907 180.645 639.105 181.644 639.105 182.653V524C639.105 525.009 638.907 526.008 638.521 526.941C638.134 527.873 637.568 528.72 636.855 529.434C636.141 530.147 635.294 530.713 634.362 531.1C633.429 531.486 632.43 531.685 631.421 531.685H110.483C108.445 531.685 106.491 530.875 105.05 529.434C103.608 527.993 102.799 526.038 102.799 524V182.653C102.799 180.615 103.608 178.661 105.05 177.219C106.491 175.778 108.445 174.969 110.483 174.969V174.969Z" fill="white"/>
<path d="M478.301 412.096C476.251 412.094 474.223 411.662 472.35 410.828C471.915 410.635 471.499 410.398 471.11 410.123L433.25 383.474C431.33 382.122 429.763 380.329 428.682 378.245C427.6 376.161 427.035 373.847 427.034 371.499V335.155C427.035 332.807 427.6 330.493 428.681 328.409C429.763 326.325 431.33 324.532 433.25 323.18L471.11 296.531C471.499 296.255 471.915 296.019 472.35 295.826C474.58 294.834 477.023 294.416 479.456 294.608C481.889 294.801 484.235 295.598 486.282 296.928C488.328 298.257 490.01 300.078 491.174 302.223C492.339 304.367 492.949 306.769 492.949 309.21V397.444C492.949 401.329 491.405 405.054 488.658 407.801C485.911 410.548 482.186 412.091 478.301 412.091L478.301 412.096Z" fill="#3B7D5E"/>
<path d="M393.571 419.242H287.979C266.436 419.224 248.978 405.299 248.956 388.116V318.539C248.978 301.356 266.436 287.431 287.979 287.413H393.847C415.236 287.433 432.569 301.259 432.594 318.32V388.116C432.572 405.299 415.114 419.224 393.571 419.242Z" fill="#3B7D5E"/>
<path d="M581.667 509.735C599.011 509.735 613.071 495.675 613.071 478.331C613.071 460.987 599.011 446.927 581.667 446.927C564.323 446.927 550.263 460.987 550.263 478.331C550.263 495.675 564.323 509.735 581.667 509.735Z" fill="#4F4F4F"/>
<path d="M597.978 477.768L572.945 463.316C572.847 463.259 572.735 463.229 572.62 463.229C572.506 463.229 572.394 463.259 572.295 463.316C572.197 463.373 572.115 463.455 572.058 463.554C572.001 463.652 571.97 463.764 571.97 463.879V492.784C571.97 492.898 572.001 493.01 572.058 493.109C572.115 493.207 572.197 493.289 572.295 493.346C572.394 493.404 572.506 493.434 572.62 493.434C572.735 493.434 572.847 493.404 572.945 493.346L597.978 478.894C598.077 478.837 598.159 478.755 598.216 478.656C598.273 478.557 598.303 478.445 598.303 478.331C598.303 478.217 598.273 478.105 598.216 478.006C598.159 477.907 598.077 477.825 597.978 477.768L572.945 463.316C572.847 463.259 572.735 463.229 572.62 463.229C572.506 463.229 572.394 463.259 572.295 463.316C572.197 463.373 572.115 463.455 572.058 463.554C572.001 463.652 571.97 463.764 571.97 463.879V492.784C571.97 492.898 572.001 493.01 572.058 493.109C572.115 493.207 572.197 493.289 572.295 493.347C572.394 493.404 572.506 493.434 572.62 493.434C572.735 493.434 572.847 493.404 572.945 493.346L597.978 478.894C598.077 478.837 598.159 478.755 598.216 478.656C598.273 478.557 598.303 478.445 598.303 478.331C598.303 478.217 598.273 478.105 598.216 478.006C598.159 477.907 598.077 477.825 597.978 477.768V477.768Z" fill="white"/>
</svg>
