<svg width="584" height="485" viewBox="0 0 584 485" fill="none" xmlns="http://www.w3.org/2000/svg">
<path d="M351.535 204.608H351.41L279.92 235.135L182.107 276.902C181.725 277.063 181.315 277.147 180.9 277.149C180.485 277.151 180.074 277.071 179.691 276.914L78.7762 235.048L5.52979 204.658L5.41791 204.608H5.29327C4.13755 204.61 3.0295 205.069 2.21228 205.887C1.39506 206.704 0.935363 207.812 0.934082 208.968V398.28C0.935363 399.435 1.39506 400.543 2.21228 401.361C3.0295 402.178 4.13755 402.637 5.29327 402.639H351.535C352.691 402.637 353.799 402.178 354.616 401.361C355.433 400.543 355.893 399.435 355.894 398.28V208.968C355.893 207.812 355.433 206.704 354.616 205.887C353.799 205.069 352.691 204.61 351.535 204.608V204.608Z" fill="white"/>
<path d="M351.846 205.854C351.718 205.854 351.594 205.815 351.49 205.742L179.267 85.801C178.743 85.4377 178.12 85.2435 177.482 85.2446C176.844 85.2457 176.222 85.442 175.699 85.807L4.7164 205.741C4.58114 205.835 4.41406 205.872 4.2518 205.843C4.08954 205.814 3.94531 205.722 3.85068 205.588C3.75605 205.453 3.71879 205.286 3.74698 205.123C3.77517 204.961 3.8665 204.816 4.00107 204.721L174.984 84.7872C175.716 84.2762 176.587 84.0015 177.48 84C178.373 83.9985 179.245 84.2704 179.978 84.779L352.202 204.72C352.311 204.796 352.392 204.904 352.435 205.03C352.478 205.155 352.48 205.291 352.44 205.418C352.4 205.544 352.321 205.655 352.214 205.733C352.107 205.812 351.978 205.854 351.845 205.854H351.846Z" fill="#3F3D56"/>
<path d="M14.4868 210.106L177.651 89.1807L342.054 218.71L186.058 311.186L101.366 291.882L14.4868 210.106Z" fill="#E6E6E6"/>
<path d="M108.515 368.305H27.9077C26.9089 368.306 25.9505 367.911 25.2432 367.206C24.5359 366.5 24.1377 365.543 24.1362 364.544C24.1348 363.546 24.5301 362.587 25.2353 361.88C25.9405 361.173 26.8978 360.774 27.8966 360.773H108.515C109.514 360.771 110.472 361.167 111.18 361.872C111.887 362.577 112.285 363.535 112.287 364.533C112.288 365.532 111.893 366.491 111.187 367.198C110.482 367.905 109.525 368.303 108.526 368.305H108.515Z" fill="#3B7D5E"/>
<path d="M56.8281 352.113H27.908C26.9097 352.114 25.9519 351.719 25.2452 351.013C24.5385 350.308 24.1406 349.351 24.1392 348.353C24.1377 347.355 24.5327 346.397 25.2373 345.689C25.942 344.982 26.8986 344.584 27.8969 344.582H56.8281C57.3229 344.58 57.813 344.677 58.2705 344.865C58.728 345.054 59.1438 345.33 59.4943 345.68C59.8448 346.029 60.1231 346.444 60.3132 346.901C60.5033 347.357 60.6015 347.847 60.6022 348.342C60.603 348.837 60.5062 349.327 60.3174 349.784C60.1287 350.241 59.8517 350.657 59.5022 351.007C59.1527 351.358 58.7377 351.636 58.2808 351.825C57.8239 352.015 57.3341 352.113 56.8393 352.113H56.8281Z" fill="#3B7D5E"/>
<path d="M179.946 277.459C179.333 277.46 178.726 277.341 178.159 277.109L77.5308 235.355V104.659C77.5321 103.503 77.9918 102.395 78.809 101.578C79.6262 100.761 80.7342 100.301 81.8899 100.3H274.938C276.094 100.301 277.202 100.761 278.019 101.578C278.836 102.395 279.296 103.503 279.298 104.659V235.446L279.108 235.527L181.787 277.089C181.204 277.334 180.578 277.46 179.946 277.459V277.459Z" fill="white"/>
<path d="M179.946 277.77C179.293 277.771 178.645 277.644 178.041 277.397L77.2192 235.563V104.659C77.2206 103.421 77.7132 102.233 78.5887 101.358C79.4643 100.482 80.6515 99.9897 81.8898 99.9883H274.938C276.177 99.9897 277.364 100.482 278.239 101.358C279.115 102.233 279.607 103.421 279.609 104.659V235.652L181.909 277.375C181.288 277.636 180.62 277.771 179.946 277.77V277.77ZM78.4647 234.731L178.516 276.246C179.449 276.624 180.494 276.618 181.422 276.228L278.363 234.83V104.659C278.362 103.751 278.001 102.88 277.359 102.238C276.717 101.596 275.846 101.235 274.938 101.234H81.8898C80.9817 101.235 80.1112 101.596 79.4691 102.238C78.827 102.88 78.4658 103.751 78.4647 104.659L78.4647 234.731Z" fill="#3F3D56"/>
<path d="M350.601 204.608H350.476L278.986 235.135L181.173 276.902C180.791 277.063 180.381 277.147 179.966 277.149C179.551 277.151 179.14 277.071 178.757 276.914L77.8422 235.048L4.59576 204.658L4.48383 204.608H4.35913C3.2034 204.61 2.09542 205.069 1.2782 205.887C0.460975 206.704 0.00128108 207.812 0 208.968V398.28C0.00128108 399.435 0.460975 400.543 1.2782 401.361C2.09542 402.178 3.2034 402.637 4.35913 402.639H350.601C351.757 402.637 352.865 402.178 353.682 401.361C354.499 400.543 354.959 399.435 354.96 398.28V208.968C354.959 207.812 354.499 206.704 353.682 205.887C352.865 205.069 351.757 204.61 350.601 204.608V204.608ZM353.715 398.28C353.714 399.105 353.386 399.897 352.802 400.481C352.218 401.065 351.427 401.393 350.601 401.393H4.35913C3.53343 401.393 2.74163 401.065 2.15778 400.481C1.57392 399.897 1.24581 399.105 1.24548 398.28V208.968C1.24661 208.162 1.55889 207.389 2.11713 206.808C2.67536 206.228 3.43629 205.886 4.24084 205.854L77.8422 236.393L178.277 278.066C179.365 278.509 180.583 278.502 181.665 278.048L278.986 236.486L350.726 205.854C351.529 205.889 352.288 206.232 352.844 206.811C353.401 207.391 353.713 208.164 353.715 208.968V398.28Z" fill="#3F3D56"/>
<path d="M164.28 149.154H95.7786C94.4585 149.152 93.1932 148.627 92.2604 147.693C91.3277 146.758 90.8037 145.492 90.8037 144.172C90.8037 142.852 91.3277 141.586 92.2604 140.652C93.1932 139.718 94.4585 139.192 95.7786 139.19H164.28C165.6 139.192 166.865 139.718 167.798 140.652C168.731 141.586 169.255 142.852 169.255 144.172C169.255 145.492 168.731 146.758 167.798 147.693C166.865 148.627 165.6 149.152 164.28 149.154V149.154Z" fill="#3B7D5E"/>
<path d="M128.784 127.981H95.7787C94.4575 127.981 93.1903 127.456 92.256 126.522C91.3218 125.588 90.7969 124.321 90.7969 122.999C90.7969 121.678 91.3218 120.411 92.256 119.477C93.1903 118.542 94.4575 118.018 95.7787 118.018H128.784C130.105 118.018 131.372 118.542 132.307 119.477C133.241 120.411 133.766 121.678 133.766 122.999C133.766 124.321 133.241 125.588 132.307 126.522C131.372 127.456 130.105 127.981 128.784 127.981V127.981Z" fill="#3B7D5E"/>
<path d="M229.647 198.973H125.028C123.707 198.971 122.442 198.445 121.509 197.511C120.577 196.577 120.053 195.311 120.053 193.991C120.053 192.671 120.577 191.405 121.509 190.471C122.442 189.537 123.707 189.011 125.028 189.009H229.647C230.967 189.011 232.233 189.537 233.166 190.471C234.098 191.405 234.622 192.671 234.622 193.991C234.622 195.311 234.098 196.577 233.166 197.511C232.233 198.445 230.967 198.971 229.647 198.973V198.973Z" fill="#CCCCCC"/>
<path d="M229.648 222.015H125.028C123.706 222.015 122.439 221.49 121.505 220.555C120.571 219.621 120.046 218.354 120.046 217.033C120.046 215.711 120.571 214.444 121.505 213.51C122.439 212.576 123.706 212.051 125.028 212.051H229.648C230.969 212.051 232.236 212.576 233.17 213.51C234.105 214.444 234.63 215.711 234.63 217.033C234.63 218.354 234.105 219.621 233.17 220.555C232.236 221.49 230.969 222.015 229.648 222.015V222.015Z" fill="#CCCCCC"/>
<path d="M348.67 253.785C374.832 253.785 396.041 232.576 396.041 206.413C396.041 180.251 374.832 159.042 348.67 159.042C322.507 159.042 301.299 180.251 301.299 206.413C301.299 232.576 322.507 253.785 348.67 253.785Z" fill="#3B7D5E"/>
<path d="M344.156 226.411L329.978 208.18L338.223 201.767L344.936 210.399L367.615 186.458L375.199 193.643L344.156 226.411Z" fill="white"/>
</svg>
